<svg width="117" height="104" viewBox="0 0 117 104" fill="none" xmlns="http://www.w3.org/2000/svg">
<path d="M103.04 20.9578C99.4386 22.3156 96.1324 24.1859 93.2974 26.8063C88.7764 30.9781 86.6479 36.3592 85.5774 42.2571C85.48 42.7875 85.6789 43.389 84.9612 43.9468C84.5752 43.1552 84.1323 42.4096 83.8461 41.611C81.5922 35.3262 76.9401 31.6367 70.848 29.4861C69.7076 29.0837 68.5416 28.7498 67.3891 28.3861C67.1429 28.0587 66.9057 27.7298 66.658 27.3935C69.014 26.0637 71.1831 24.4888 73.0571 22.5117C76.5597 18.7996 78.2073 14.4155 77.9301 9.32498C77.8437 7.72206 78.0468 6.0905 77.1464 4.11477C78.6152 5.18031 78.6941 6.39859 79.1719 7.35898C81.4162 11.8906 84.4145 15.693 89.0766 17.9201C92.4843 19.5521 96.0891 20.3068 99.8638 20.2988C100.883 20.2982 101.9 20.3349 102.921 20.3432C102.955 20.5491 102.987 20.746 103.029 20.9504L103.04 20.9578Z" fill="#00ADA9"/>
<path d="M48.6405 61.5676C45.0713 60.1283 41.372 59.2657 37.5115 59.2741C31.3598 59.2825 26.1497 61.8008 21.3682 65.4158C20.9373 65.7401 20.6764 66.3174 19.7706 66.2419C20.0225 65.398 20.2015 64.5495 20.5318 63.768C23.129 57.6171 22.2042 51.7521 19.1777 46.0443C18.611 44.976 17.9792 43.9407 17.3774 42.8927C17.4179 42.485 17.466 42.0824 17.5115 41.6672C20.1456 42.2841 22.8083 42.594 25.526 42.4082C30.617 42.0484 34.7981 39.9382 38.0412 36.0046C39.0631 34.7667 40.3173 33.7036 40.9926 31.6401C41.3519 33.4188 40.585 34.3686 40.2863 35.3989C38.8691 40.2531 38.5005 45.0815 40.423 49.8772C41.8254 53.3856 43.9669 56.3819 46.7498 58.9321C47.5006 59.6222 48.2238 60.3375 48.9695 61.0352C48.8548 61.2093 48.745 61.3759 48.6378 61.5551L48.6405 61.5676Z" fill="#00ADA9"/>
<path d="M62.4487 39.5391C60.5987 40.2367 58.9001 41.1976 57.4435 42.5439C55.1208 44.6872 54.0272 47.4519 53.4772 50.482C53.4272 50.7545 53.5294 51.0635 53.1607 51.3501C52.9623 50.9434 52.7348 50.5604 52.5878 50.15C51.4298 46.9211 49.0397 45.0256 45.9098 43.9207C45.3239 43.714 44.7248 43.5424 44.1327 43.3555C44.0062 43.1873 43.8843 43.0184 43.7571 42.8456C44.9675 42.1624 46.082 41.3532 47.0448 40.3375C48.8443 38.4303 49.6907 36.1779 49.5483 33.5626C49.504 32.7391 49.6083 31.9008 49.1457 30.8858C49.9003 31.4332 49.9408 32.0591 50.1863 32.5525C51.3393 34.8807 52.8798 36.8343 55.275 37.9785C57.0258 38.8169 58.8778 39.2047 60.8171 39.2006C61.341 39.2003 61.8632 39.2191 62.3879 39.2234C62.4051 39.3291 62.4216 39.4303 62.4434 39.5354L62.4487 39.5391Z" fill="#00ADA9"/>
<path d="M16.3017 86.6611C20.8755 84.2814 24.1772 80.8592 25.4238 75.7044C26.0887 72.9594 25.7741 70.2361 25.1675 67.0733C25.7042 67.8312 26.0593 68.1501 26.2083 68.5576C29.4404 77.127 35.9158 80.7862 44.7617 80.89C45.0065 81.2084 45.2408 81.5194 45.4766 81.8394C41.0658 83.6964 37.4296 86.4748 34.9882 90.6665C33.2294 93.6905 32.3433 96.9952 31.9437 100.919C31.4608 100.097 31.1018 99.641 30.9174 99.129C28.7675 92.9192 24.1979 89.5103 18.0425 87.9304C17.6791 87.8426 17.3292 87.7249 16.9644 87.6281C16.7375 87.3068 16.521 86.9928 16.2942 86.6715L16.3017 86.6611Z" fill="#00ADA9"/>
<path d="M45.4841 81.8289C45.2483 81.5089 45.005 81.1994 44.7692 80.8795C45.4942 80.7615 46.2281 80.642 46.9545 80.533C47.0084 80.8642 47.0623 81.1954 47.1162 81.5265C46.5717 81.6243 46.0272 81.7221 45.4841 81.8289Z" fill="#00ADA9"/>
<path d="M47.1163 81.5265C47.0624 81.1953 47.0085 80.8641 46.9546 80.533C47.2127 80.4818 47.4829 80.3919 47.7393 80.3869C48.0956 80.3749 48.5113 80.445 48.4603 80.9218C48.4357 81.1096 48.1278 81.3067 47.9143 81.4057C47.6739 81.5092 47.3862 81.4917 47.1267 81.5339L47.1163 81.5265Z" fill="#00ADA9"/>
<path d="M103.04 20.9578C103.006 20.7519 102.974 20.5551 102.932 20.3507C103.648 20.2341 104.364 20.1176 105.661 19.9064C104.568 20.8653 103.769 20.8115 103.04 20.9578Z" fill="#00ADA9"/>
<path d="M66.6684 27.401C66.9146 27.7284 67.1519 28.0572 67.3995 28.3936C66.8357 28.4854 66.1869 28.5634 65.9492 27.9498C65.7913 27.5437 66.3089 27.4503 66.6684 27.401Z" fill="#00ADA9"/>
<path d="M16.3017 86.6611C16.5285 86.9825 16.745 87.2963 16.9718 87.6177C16.4259 87.7066 15.7965 87.7906 15.5842 87.1637C15.4516 86.7443 15.9453 86.6731 16.3017 86.6611Z" fill="#00ADA9"/>
</svg>
