<svg width="876" height="1289" viewBox="0 0 876 1289" fill="none" xmlns="http://www.w3.org/2000/svg">
<g opacity="0.2">
<path d="M-79.8467 190.873L-25.707 238.401L-31.2777 182.173L-77.2411 183.612C-81.0067 183.737 -82.6809 188.394 -79.8508 190.878L-79.8467 190.873Z" stroke="#00ADA9" stroke-miterlimit="10"/>
<path d="M30.5221 226.165L-23.548 178.558L-18.0601 234.795L27.9037 233.431C31.6652 233.31 33.3481 228.653 30.5267 226.169L30.5221 226.165Z" stroke="#00ADA9" stroke-miterlimit="10"/>
<path d="M-12.9156 249.803L41.2241 297.331L35.6534 241.104L-10.31 242.543C-14.0756 242.668 -15.7498 247.325 -12.9197 249.808L-12.9156 249.803Z" stroke="#00ADA9" stroke-miterlimit="10"/>
<path d="M97.5834 285.21L43.5133 237.603L49.0013 293.84L94.9651 292.476C98.7266 292.355 100.409 287.698 97.5881 285.214L97.5834 285.21Z" stroke="#00ADA9" stroke-miterlimit="10"/>
<path d="M54.1457 308.848L108.285 356.376L102.715 300.149L56.7513 301.588C52.9857 301.713 51.3116 306.369 54.1417 308.853L54.1457 308.848Z" stroke="#00ADA9" stroke-miterlimit="10"/>
<path d="M164.515 344.14L110.444 296.533L115.932 352.77L161.896 351.406C165.658 351.286 167.341 346.628 164.519 344.144L164.515 344.14Z" stroke="#00ADA9" stroke-miterlimit="10"/>
<path d="M121.077 367.779L175.217 415.307L169.646 359.079L123.682 360.518C119.917 360.643 118.243 365.3 121.073 367.783L121.077 367.779Z" stroke="#00ADA9" stroke-miterlimit="10"/>
<path d="M231.181 402.837L177.111 355.231L182.599 411.467L228.562 410.103C232.324 409.983 234.007 405.325 231.185 402.841L231.181 402.837Z" stroke="#00ADA9" stroke-miterlimit="10"/>
<path d="M187.743 426.476L241.883 474.004L236.312 417.776L190.349 419.215C186.583 419.34 184.909 423.997 187.739 426.481L187.743 426.476Z" stroke="#00ADA9" stroke-miterlimit="10"/>
<path d="M298.112 461.768L244.042 414.161L249.53 470.398L295.493 469.034C299.255 468.913 300.938 464.256 298.116 461.772L298.112 461.768Z" stroke="#00ADA9" stroke-miterlimit="10"/>
<path d="M254.674 485.406L308.814 532.934L303.243 476.707L257.28 478.146C253.514 478.271 251.84 482.927 254.67 485.411L254.674 485.406Z" stroke="#00ADA9" stroke-miterlimit="10"/>
<path d="M364.908 520.579L310.838 472.973L316.326 529.21L362.29 527.845C366.051 527.725 367.734 523.068 364.913 520.584L364.908 520.579Z" stroke="#00ADA9" stroke-miterlimit="10"/>
<path d="M321.475 544.222L375.615 591.75L370.044 535.523L324.081 536.961C320.315 537.087 318.641 541.743 321.471 544.227L321.475 544.222Z" stroke="#00ADA9" stroke-miterlimit="10"/>
<path d="M431.839 579.51L377.769 531.903L383.257 588.14L429.221 586.776C432.982 586.655 434.665 581.998 431.844 579.514L431.839 579.51Z" stroke="#00ADA9" stroke-miterlimit="10"/>
<path d="M388.406 603.153L442.546 650.68L436.975 594.453L391.012 595.892C387.246 596.017 385.572 600.674 388.402 603.157L388.406 603.153Z" stroke="#00ADA9" stroke-miterlimit="10"/>
<path d="M498.506 638.207L444.435 590.6L449.923 646.837L495.887 645.473C499.649 645.352 501.332 640.695 498.51 638.211L498.506 638.207Z" stroke="#00ADA9" stroke-miterlimit="10"/>
<path d="M455.068 661.846L509.208 709.373L503.637 653.146L457.673 654.585C453.908 654.71 452.234 659.367 455.064 661.85L455.068 661.846Z" stroke="#00ADA9" stroke-miterlimit="10"/>
<path d="M565.437 697.137L511.367 649.531L516.854 705.768L562.818 704.403C566.58 704.283 568.263 699.626 565.441 697.142L565.437 697.137Z" stroke="#00ADA9" stroke-miterlimit="10"/>
<path d="M521.999 720.776L576.139 768.304L570.568 712.077L524.605 713.515C520.839 713.641 519.165 718.297 521.995 720.781L521.999 720.776Z" stroke="#00ADA9" stroke-miterlimit="10"/>
<path d="M632.503 756.187L578.432 708.58L583.92 764.817L629.884 763.452C633.646 763.332 635.329 758.675 632.507 756.191L632.503 756.187Z" stroke="#00ADA9" stroke-miterlimit="10"/>
<path d="M589.065 779.825L643.205 827.353L637.634 771.126L591.67 772.564C587.905 772.69 586.231 777.346 589.061 779.83L589.065 779.825Z" stroke="#00ADA9" stroke-miterlimit="10"/>
<path d="M699.434 815.117L645.364 767.51L650.851 823.747L696.815 822.383C700.577 822.262 702.26 817.605 699.438 815.121L699.434 815.117Z" stroke="#00ADA9" stroke-miterlimit="10"/>
<path d="M655.996 838.756L710.136 886.283L704.565 830.056L658.602 831.495C654.836 831.62 653.162 836.277 655.992 838.76L655.996 838.756Z" stroke="#00ADA9" stroke-miterlimit="10"/>
<path d="M766.1 873.814L712.03 826.207L717.518 882.444L763.481 881.08C767.243 880.959 768.926 876.302 766.105 873.818L766.1 873.814Z" stroke="#00ADA9" stroke-miterlimit="10"/>
<path d="M722.662 897.453L776.802 944.98L771.231 888.753L725.268 890.192C721.502 890.317 719.828 894.974 722.658 897.457L722.662 897.453Z" stroke="#00ADA9" stroke-miterlimit="10"/>
<path d="M833.031 932.745L778.961 885.138L784.449 941.375L830.413 940.01C834.174 939.89 835.857 935.233 833.036 932.749L833.031 932.745Z" stroke="#00ADA9" stroke-miterlimit="10"/>
<path d="M789.593 956.383L843.733 1003.91L838.162 947.684L792.199 949.122C788.433 949.248 786.759 953.904 789.589 956.388L789.593 956.383Z" stroke="#00ADA9" stroke-miterlimit="10"/>
<path d="M-48.5191 290.241L5.62058 337.769L0.0498744 281.541L-45.9136 282.98C-49.6791 283.105 -51.3533 287.762 -48.5232 290.246L-48.5191 290.241Z" stroke="#00ADA9" stroke-miterlimit="10"/>
<path d="M61.9797 325.647L7.90955 278.04L13.3975 334.277L59.3613 332.913C63.1228 332.793 64.8057 328.135 61.9843 325.651L61.9797 325.647Z" stroke="#00ADA9" stroke-miterlimit="10"/>
<path d="M18.542 349.286L72.6817 396.814L67.111 340.586L21.1476 342.025C17.382 342.15 15.7079 346.807 18.538 349.291L18.542 349.286Z" stroke="#00ADA9" stroke-miterlimit="10"/>
<path d="M128.911 384.578L74.8407 336.971L80.3287 393.208L126.292 391.844C130.054 391.723 131.737 387.066 128.915 384.582L128.911 384.578Z" stroke="#00ADA9" stroke-miterlimit="10"/>
<path d="M85.4732 408.216L139.613 455.744L134.042 399.517L88.0787 400.955C84.3132 401.081 82.639 405.737 85.4691 408.221L85.4732 408.216Z" stroke="#00ADA9" stroke-miterlimit="10"/>
<path d="M195.577 443.275L141.507 395.668L146.995 451.905L192.959 450.541C196.72 450.42 198.403 445.763 195.582 443.279L195.577 443.275Z" stroke="#00ADA9" stroke-miterlimit="10"/>
<path d="M152.139 466.913L206.279 514.441L200.708 458.214L154.745 459.653C150.979 459.778 149.305 464.435 152.135 466.918L152.139 466.913Z" stroke="#00ADA9" stroke-miterlimit="10"/>
<path d="M262.508 502.205L208.438 454.598L213.926 510.835L259.89 509.471C263.651 509.351 265.334 504.693 262.513 502.209L262.508 502.205Z" stroke="#00ADA9" stroke-miterlimit="10"/>
<path d="M219.071 525.844L273.21 573.372L267.64 517.144L221.676 518.583C217.911 518.708 216.236 523.365 219.066 525.848L219.071 525.844Z" stroke="#00ADA9" stroke-miterlimit="10"/>
<path d="M329.304 561.017L275.234 513.41L280.722 569.647L326.686 568.283C330.448 568.162 332.13 563.505 329.309 561.021L329.304 561.017Z" stroke="#00ADA9" stroke-miterlimit="10"/>
<path d="M285.872 584.66L340.011 632.187L334.441 575.96L288.477 577.399C284.711 577.524 283.037 582.181 285.867 584.664L285.872 584.66Z" stroke="#00ADA9" stroke-miterlimit="10"/>
<path d="M396.236 619.947L342.166 572.341L347.653 628.577L393.617 627.213C397.379 627.093 399.062 622.436 396.24 619.951L396.236 619.947Z" stroke="#00ADA9" stroke-miterlimit="10"/>
<path d="M352.803 643.59L406.942 691.118L401.372 634.891L355.408 636.329C351.643 636.454 349.968 641.111 352.799 643.595L352.803 643.59Z" stroke="#00ADA9" stroke-miterlimit="10"/>
<path d="M462.902 678.644L408.832 631.038L414.32 687.275L460.283 685.91C464.045 685.79 465.728 681.133 462.906 678.649L462.902 678.644Z" stroke="#00ADA9" stroke-miterlimit="10"/>
<path d="M419.464 702.283L473.604 749.811L468.033 693.584L422.07 695.022C418.304 695.148 416.63 699.804 419.46 702.288L419.464 702.283Z" stroke="#00ADA9" stroke-miterlimit="10"/>
<path d="M529.833 737.575L475.763 689.968L481.251 746.205L527.215 744.841C530.976 744.72 532.659 740.063 529.838 737.579L529.833 737.575Z" stroke="#00ADA9" stroke-miterlimit="10"/>
<path d="M486.395 761.213L540.535 808.741L534.964 752.514L489.001 753.953C485.235 754.078 483.561 758.735 486.391 761.218L486.395 761.213Z" stroke="#00ADA9" stroke-miterlimit="10"/>
<path d="M596.899 796.624L542.829 749.017L548.317 805.254L594.281 803.89C598.042 803.769 599.725 799.112 596.904 796.628L596.899 796.624Z" stroke="#00ADA9" stroke-miterlimit="10"/>
<path d="M553.461 820.263L607.601 867.79L602.03 811.563L556.067 813.002C552.301 813.127 550.627 817.784 553.457 820.267L553.461 820.263Z" stroke="#00ADA9" stroke-miterlimit="10"/>
<path d="M663.83 855.554L609.76 807.948L615.248 864.185L661.212 862.82C664.973 862.7 666.656 858.043 663.835 855.559L663.83 855.554Z" stroke="#00ADA9" stroke-miterlimit="10"/>
<path d="M620.392 879.193L674.532 926.721L668.961 870.494L622.998 871.932C619.232 872.058 617.558 876.714 620.388 879.198L620.392 879.193Z" stroke="#00ADA9" stroke-miterlimit="10"/>
<path d="M730.496 914.252L676.426 866.645L681.914 922.882L727.878 921.517C731.639 921.397 733.322 916.74 730.501 914.256L730.496 914.252Z" stroke="#00ADA9" stroke-miterlimit="10"/>
<path d="M687.059 937.89L741.198 985.418L735.628 929.191L689.664 930.629C685.899 930.755 684.224 935.411 687.054 937.895L687.059 937.89Z" stroke="#00ADA9" stroke-miterlimit="10"/>
<path d="M797.427 973.182L743.357 925.575L748.845 981.812L794.809 980.448C798.57 980.327 800.253 975.67 797.432 973.186L797.427 973.182Z" stroke="#00ADA9" stroke-miterlimit="10"/>
<path d="M753.99 996.82L808.129 1044.35L802.559 988.121L756.595 989.56C752.83 989.685 751.155 994.342 753.986 996.825L753.99 996.82Z" stroke="#00ADA9" stroke-miterlimit="10"/>
<path d="M27.3056 366.903L-26.7646 319.296L-21.2766 375.533L24.6872 374.169C28.4487 374.049 30.1315 369.391 27.3102 366.907L27.3056 366.903Z" stroke="#00ADA9" stroke-miterlimit="10"/>
<path d="M-16.1321 390.542L38.0076 438.07L32.4369 381.842L-13.5265 383.281C-17.2921 383.406 -18.9662 388.063 -16.1362 390.546L-16.1321 390.542Z" stroke="#00ADA9" stroke-miterlimit="10"/>
<path d="M94.2367 425.834L40.1666 378.227L45.6545 434.464L91.6183 433.1C95.3798 432.979 97.0627 428.322 94.2414 425.838L94.2367 425.834Z" stroke="#00ADA9" stroke-miterlimit="10"/>
<path d="M50.7991 449.472L104.939 497L99.368 440.773L53.4046 442.211C49.639 442.337 47.9649 446.993 50.795 449.477L50.7991 449.472Z" stroke="#00ADA9" stroke-miterlimit="10"/>
<path d="M160.903 484.531L106.833 436.924L112.321 493.161L158.285 491.797C162.046 491.676 163.729 487.019 160.908 484.535L160.903 484.531Z" stroke="#00ADA9" stroke-miterlimit="10"/>
<path d="M117.465 508.169L171.605 555.697L166.034 499.47L120.071 500.909C116.305 501.034 114.631 505.69 117.461 508.174L117.465 508.169Z" stroke="#00ADA9" stroke-miterlimit="10"/>
<path d="M227.834 543.461L173.764 495.854L179.252 552.091L225.216 550.727C228.977 550.606 230.66 545.949 227.839 543.465L227.834 543.461Z" stroke="#00ADA9" stroke-miterlimit="10"/>
<path d="M184.396 567.1L238.536 614.627L232.965 558.4L187.002 559.839C183.236 559.964 181.562 564.621 184.392 567.104L184.396 567.1Z" stroke="#00ADA9" stroke-miterlimit="10"/>
<path d="M294.63 602.273L240.56 554.666L246.048 610.903L292.012 609.539C295.773 609.418 297.456 604.761 294.635 602.277L294.63 602.273Z" stroke="#00ADA9" stroke-miterlimit="10"/>
<path d="M251.197 625.916L305.337 673.443L299.766 617.216L253.803 618.655C250.037 618.78 248.363 623.437 251.193 625.92L251.197 625.916Z" stroke="#00ADA9" stroke-miterlimit="10"/>
<path d="M361.561 661.203L307.491 613.597L312.979 669.833L358.943 668.469C362.705 668.349 364.387 663.691 361.566 661.207L361.561 661.203Z" stroke="#00ADA9" stroke-miterlimit="10"/>
<path d="M318.128 684.846L372.268 732.374L366.697 676.146L320.734 677.585C316.968 677.71 315.294 682.367 318.124 684.851L318.128 684.846Z" stroke="#00ADA9" stroke-miterlimit="10"/>
<path d="M428.228 719.9L374.158 672.294L379.646 728.531L425.609 727.166C429.371 727.046 431.054 722.389 428.232 719.905L428.228 719.9Z" stroke="#00ADA9" stroke-miterlimit="10"/>
<path d="M384.79 743.539L438.93 791.067L433.359 734.84L387.396 736.278C383.63 736.404 381.956 741.06 384.786 743.544L384.79 743.539Z" stroke="#00ADA9" stroke-miterlimit="10"/>
<path d="M495.159 778.831L441.089 731.224L446.577 787.461L492.54 786.097C496.302 785.976 497.985 781.319 495.164 778.835L495.159 778.831Z" stroke="#00ADA9" stroke-miterlimit="10"/>
<path d="M451.721 802.469L505.861 849.997L500.29 793.77L454.327 795.209C450.561 795.334 448.887 799.99 451.717 802.474L451.721 802.469Z" stroke="#00ADA9" stroke-miterlimit="10"/>
<path d="M562.225 837.88L508.155 790.273L513.643 846.51L559.606 845.146C563.368 845.025 565.051 840.368 562.229 837.884L562.225 837.88Z" stroke="#00ADA9" stroke-miterlimit="10"/>
<path d="M518.787 861.518L572.927 909.046L567.356 852.819L521.393 854.258C517.627 854.383 515.953 859.04 518.783 861.523L518.787 861.518Z" stroke="#00ADA9" stroke-miterlimit="10"/>
<path d="M629.156 896.81L575.086 849.204L580.574 905.44L626.538 904.076C630.299 903.956 631.982 899.299 629.161 896.814L629.156 896.81Z" stroke="#00ADA9" stroke-miterlimit="10"/>
<path d="M585.718 920.449L639.858 967.977L634.287 911.749L588.324 913.188C584.558 913.313 582.884 917.97 585.714 920.454L585.718 920.449Z" stroke="#00ADA9" stroke-miterlimit="10"/>
<path d="M695.822 955.508L641.752 907.901L647.24 964.138L693.204 962.773C696.965 962.653 698.648 957.996 695.827 955.512L695.822 955.508Z" stroke="#00ADA9" stroke-miterlimit="10"/>
<path d="M652.384 979.146L706.524 1026.67L700.953 970.447L654.99 971.885C651.224 972.011 649.55 976.667 652.38 979.151L652.384 979.146Z" stroke="#00ADA9" stroke-miterlimit="10"/>
<path d="M762.753 1014.44L708.683 966.831L714.171 1023.07L760.135 1021.7C763.896 1021.58 765.579 1016.93 762.758 1014.44L762.753 1014.44Z" stroke="#00ADA9" stroke-miterlimit="10"/>
<path d="M719.316 1038.08L773.455 1085.6L767.885 1029.38L721.921 1030.82C718.156 1030.94 716.481 1035.6 719.311 1038.08L719.316 1038.08Z" stroke="#00ADA9" stroke-miterlimit="10"/>
<path d="M-51.7357 430.979L2.40397 478.507L-3.16675 422.28L-49.1302 423.718C-52.8958 423.844 -54.5699 428.5 -51.7398 430.984L-51.7357 430.979Z" stroke="#00ADA9" stroke-miterlimit="10"/>
<path d="M58.6331 466.271L4.56293 418.664L10.0509 474.901L56.0147 473.537C59.7762 473.416 61.4591 468.759 58.6377 466.275L58.6331 466.271Z" stroke="#00ADA9" stroke-miterlimit="10"/>
<path d="M15.1955 489.91L69.3352 537.437L63.7645 481.21L17.801 482.649C14.0354 482.774 12.3613 487.431 15.1914 489.914L15.1955 489.91Z" stroke="#00ADA9" stroke-miterlimit="10"/>
<path d="M125.299 524.968L71.2291 477.361L76.7171 533.598L122.681 532.234C126.442 532.114 128.125 527.456 125.304 524.972L125.299 524.968Z" stroke="#00ADA9" stroke-miterlimit="10"/>
<path d="M81.8617 548.607L136.001 596.135L130.431 539.907L84.4672 541.346C80.7016 541.471 79.0275 546.128 81.8576 548.611L81.8617 548.607Z" stroke="#00ADA9" stroke-miterlimit="10"/>
<path d="M192.23 583.899L138.16 536.292L143.648 592.529L189.612 591.165C193.374 591.044 195.056 586.387 192.235 583.903L192.23 583.899Z" stroke="#00ADA9" stroke-miterlimit="10"/>
<path d="M148.793 607.537L202.933 655.065L197.362 598.838L151.398 600.276C147.633 600.402 145.959 605.058 148.789 607.542L148.793 607.537Z" stroke="#00ADA9" stroke-miterlimit="10"/>
<path d="M259.027 642.71L204.956 595.104L210.444 651.341L256.408 649.976C260.17 649.856 261.853 645.199 259.031 642.715L259.027 642.71Z" stroke="#00ADA9" stroke-miterlimit="10"/>
<path d="M215.594 666.353L269.733 713.881L264.163 657.654L218.199 659.092C214.434 659.218 212.759 663.874 215.59 666.358L215.594 666.353Z" stroke="#00ADA9" stroke-miterlimit="10"/>
<path d="M325.958 701.641L271.888 654.034L277.376 710.271L323.339 708.907C327.101 708.786 328.784 704.129 325.962 701.645L325.958 701.641Z" stroke="#00ADA9" stroke-miterlimit="10"/>
<path d="M282.525 725.283L336.665 772.811L331.094 716.584L285.13 718.023C281.365 718.148 279.691 722.805 282.521 725.288L282.525 725.283Z" stroke="#00ADA9" stroke-miterlimit="10"/>
<path d="M392.624 760.338L338.554 712.731L344.042 768.968L390.006 767.604C393.767 767.483 395.45 762.826 392.629 760.342L392.624 760.338Z" stroke="#00ADA9" stroke-miterlimit="10"/>
<path d="M349.186 783.976L403.326 831.504L397.755 775.277L351.792 776.716C348.026 776.841 346.352 781.498 349.182 783.981L349.186 783.976Z" stroke="#00ADA9" stroke-miterlimit="10"/>
<path d="M459.555 819.268L405.485 771.662L410.973 827.898L456.937 826.534C460.698 826.414 462.381 821.756 459.56 819.272L459.555 819.268Z" stroke="#00ADA9" stroke-miterlimit="10"/>
<path d="M416.118 842.907L470.257 890.435L464.687 834.207L418.723 835.646C414.958 835.771 413.283 840.428 416.113 842.911L416.118 842.907Z" stroke="#00ADA9" stroke-miterlimit="10"/>
<path d="M526.621 878.317L472.551 830.711L478.039 886.948L524.003 885.583C527.764 885.463 529.447 880.806 526.626 878.322L526.621 878.317Z" stroke="#00ADA9" stroke-miterlimit="10"/>
<path d="M483.184 901.956L537.323 949.484L531.752 893.256L485.789 894.695C482.023 894.82 480.349 899.477 483.179 901.961L483.184 901.956Z" stroke="#00ADA9" stroke-miterlimit="10"/>
<path d="M593.552 937.248L539.482 889.641L544.97 945.878L590.934 944.514C594.695 944.393 596.378 939.736 593.557 937.252L593.552 937.248Z" stroke="#00ADA9" stroke-miterlimit="10"/>
<path d="M550.115 960.886L604.254 1008.41L598.684 952.187L552.72 953.626C548.955 953.751 547.281 958.407 550.111 960.891L550.115 960.886Z" stroke="#00ADA9" stroke-miterlimit="10"/>
<path d="M660.219 995.945L606.148 948.338L611.636 1004.57L657.6 1003.21C661.362 1003.09 663.045 998.433 660.223 995.949L660.219 995.945Z" stroke="#00ADA9" stroke-miterlimit="10"/>
<path d="M616.781 1019.58L670.921 1067.11L665.35 1010.88L619.386 1012.32C615.621 1012.45 613.947 1017.1 616.777 1019.59L616.781 1019.58Z" stroke="#00ADA9" stroke-miterlimit="10"/>
<path d="M727.15 1054.88L673.08 1007.27L678.567 1063.51L724.531 1062.14C728.293 1062.02 729.976 1057.36 727.154 1054.88L727.15 1054.88Z" stroke="#00ADA9" stroke-miterlimit="10"/>
<path d="M683.712 1078.51L737.852 1126.04L732.281 1069.81L686.318 1071.25C682.552 1071.38 680.878 1076.03 683.708 1078.52L683.712 1078.51Z" stroke="#00ADA9" stroke-miterlimit="10"/>
<path d="M22.0994 505.89L-31.9708 458.284L-26.4828 514.521L19.481 513.156C23.2425 513.036 24.9254 508.379 22.104 505.895L22.0994 505.89Z" stroke="#00ADA9" stroke-miterlimit="10"/>
<path d="M-21.3383 529.529L32.8014 577.057L27.2307 520.83L-18.7328 522.268C-22.4984 522.394 -24.1725 527.05 -21.3424 529.534L-21.3383 529.529Z" stroke="#00ADA9" stroke-miterlimit="10"/>
<path d="M88.7656 564.588L34.6954 516.981L40.1834 573.218L86.1472 571.854C89.9087 571.733 91.5916 567.076 88.7702 564.592L88.7656 564.588Z" stroke="#00ADA9" stroke-miterlimit="10"/>
<path d="M45.3279 588.226L99.4676 635.754L93.8969 579.527L47.9334 580.965C44.1678 581.091 42.4937 585.747 45.3238 588.231L45.3279 588.226Z" stroke="#00ADA9" stroke-miterlimit="10"/>
<path d="M155.697 623.518L101.627 575.911L107.114 632.148L153.078 630.784C156.84 630.663 158.523 626.006 155.701 623.522L155.697 623.518Z" stroke="#00ADA9" stroke-miterlimit="10"/>
<path d="M112.259 647.157L166.399 694.685L160.828 638.457L114.865 639.896C111.099 640.021 109.425 644.678 112.255 647.161L112.259 647.157Z" stroke="#00ADA9" stroke-miterlimit="10"/>
<path d="M222.493 682.33L168.423 634.723L173.911 690.96L219.875 689.596C223.636 689.475 225.319 684.818 222.498 682.334L222.493 682.33Z" stroke="#00ADA9" stroke-miterlimit="10"/>
<path d="M179.06 705.972L233.2 753.5L227.629 697.273L181.665 698.712C177.9 698.837 176.226 703.494 179.056 705.977L179.06 705.972Z" stroke="#00ADA9" stroke-miterlimit="10"/>
<path d="M289.424 741.26L235.354 693.653L240.842 749.89L286.806 748.526C290.567 748.406 292.25 743.748 289.429 741.264L289.424 741.26Z" stroke="#00ADA9" stroke-miterlimit="10"/>
<path d="M245.991 764.903L300.131 812.431L294.56 756.203L248.597 757.642C244.831 757.767 243.157 762.424 245.987 764.908L245.991 764.903Z" stroke="#00ADA9" stroke-miterlimit="10"/>
<path d="M356.09 799.957L302.02 752.351L307.508 808.587L353.472 807.223C357.233 807.103 358.916 802.445 356.095 799.961L356.09 799.957Z" stroke="#00ADA9" stroke-miterlimit="10"/>
<path d="M312.653 823.596L366.792 871.124L361.222 814.896L315.258 816.335C311.493 816.46 309.818 821.117 312.648 823.601L312.653 823.596Z" stroke="#00ADA9" stroke-miterlimit="10"/>
<path d="M423.021 858.888L368.951 811.281L374.439 867.518L420.403 866.154C424.164 866.033 425.847 861.376 423.026 858.892L423.021 858.888Z" stroke="#00ADA9" stroke-miterlimit="10"/>
<path d="M379.584 882.526L433.723 930.054L428.153 873.827L382.189 875.266C378.424 875.391 376.749 880.048 379.58 882.531L379.584 882.526Z" stroke="#00ADA9" stroke-miterlimit="10"/>
<path d="M490.087 917.937L436.017 870.33L441.505 926.567L487.469 925.203C491.231 925.082 492.913 920.425 490.092 917.941L490.087 917.937Z" stroke="#00ADA9" stroke-miterlimit="10"/>
<path d="M446.65 941.575L500.789 989.103L495.219 932.876L449.255 934.315C445.49 934.44 443.816 939.097 446.646 941.58L446.65 941.575Z" stroke="#00ADA9" stroke-miterlimit="10"/>
<path d="M557.019 976.867L502.948 929.26L508.436 985.497L554.4 984.133C558.162 984.013 559.844 979.355 557.023 976.871L557.019 976.867Z" stroke="#00ADA9" stroke-miterlimit="10"/>
<path d="M513.581 1000.51L567.721 1048.03L562.15 991.806L516.186 993.245C512.421 993.37 510.747 998.027 513.577 1000.51L513.581 1000.51Z" stroke="#00ADA9" stroke-miterlimit="10"/>
<path d="M623.685 1035.56L569.615 987.958L575.102 1044.19L621.066 1042.83C624.828 1042.71 626.511 1038.05 623.689 1035.57L623.685 1035.56Z" stroke="#00ADA9" stroke-miterlimit="10"/>
<path d="M580.247 1059.2L634.387 1106.73L628.816 1050.5L582.853 1051.94C579.087 1052.07 577.413 1056.72 580.243 1059.21L580.247 1059.2Z" stroke="#00ADA9" stroke-miterlimit="10"/>
<path d="M690.616 1094.49L636.546 1046.89L642.034 1103.12L687.997 1101.76C691.759 1101.64 693.442 1096.98 690.62 1094.5L690.616 1094.49Z" stroke="#00ADA9" stroke-miterlimit="10"/>
<path d="M647.178 1118.13L701.318 1165.66L695.747 1109.43L649.784 1110.87C646.018 1111 644.344 1115.65 647.174 1118.14L647.178 1118.13Z" stroke="#00ADA9" stroke-miterlimit="10"/>
<path d="M-56.942 569.967L-2.80233 617.494L-8.37305 561.267L-54.3365 562.706C-58.1021 562.831 -59.7762 567.488 -56.9461 569.971L-56.942 569.967Z" stroke="#00ADA9" stroke-miterlimit="10"/>
<path d="M53.1618 605.025L-0.908325 557.418L4.57965 613.655L50.5434 612.291C54.3049 612.17 55.9878 607.513 53.1665 605.029L53.1618 605.025Z" stroke="#00ADA9" stroke-miterlimit="10"/>
<path d="M9.72412 628.664L63.8638 676.191L58.2931 619.964L12.3297 621.403C8.56407 621.528 6.88995 626.185 9.72002 628.668L9.72412 628.664Z" stroke="#00ADA9" stroke-miterlimit="10"/>
<path d="M120.093 663.956L66.0228 616.349L71.5107 672.586L117.474 671.222C121.236 671.101 122.919 666.444 120.098 663.96L120.093 663.956Z" stroke="#00ADA9" stroke-miterlimit="10"/>
<path d="M76.6552 687.594L130.795 735.122L125.224 678.895L79.2608 680.333C75.4952 680.459 73.821 685.115 76.6511 687.599L76.6552 687.594Z" stroke="#00ADA9" stroke-miterlimit="10"/>
<path d="M186.889 722.767L132.819 675.16L138.307 731.397L184.271 730.033C188.032 729.913 189.715 725.255 186.894 722.771L186.889 722.767Z" stroke="#00ADA9" stroke-miterlimit="10"/>
<path d="M143.456 746.41L197.596 793.938L192.025 737.71L146.062 739.149C142.296 739.274 140.622 743.931 143.452 746.415L143.456 746.41Z" stroke="#00ADA9" stroke-miterlimit="10"/>
<path d="M253.82 781.698L199.75 734.091L205.238 790.328L251.202 788.964C254.963 788.843 256.646 784.186 253.825 781.702L253.82 781.698Z" stroke="#00ADA9" stroke-miterlimit="10"/>
<path d="M210.387 805.34L264.527 852.868L258.956 796.641L212.993 798.08C209.227 798.205 207.553 802.862 210.383 805.345L210.387 805.34Z" stroke="#00ADA9" stroke-miterlimit="10"/>
<path d="M320.487 840.395L266.417 792.788L271.904 849.025L317.868 847.661C321.63 847.54 323.313 842.883 320.491 840.399L320.487 840.395Z" stroke="#00ADA9" stroke-miterlimit="10"/>
<path d="M277.049 864.033L331.189 911.561L325.618 855.334L279.654 856.773C275.889 856.898 274.215 861.555 277.045 864.038L277.049 864.033Z" stroke="#00ADA9" stroke-miterlimit="10"/>
<path d="M387.418 899.325L333.348 851.719L338.836 907.955L384.799 906.591C388.561 906.471 390.244 901.813 387.422 899.329L387.418 899.325Z" stroke="#00ADA9" stroke-miterlimit="10"/>
<path d="M343.98 922.964L398.12 970.492L392.549 914.264L346.586 915.703C342.82 915.828 341.146 920.485 343.976 922.969L343.98 922.964Z" stroke="#00ADA9" stroke-miterlimit="10"/>
<path d="M454.484 958.374L400.414 910.768L405.901 967.004L451.865 965.64C455.627 965.52 457.31 960.862 454.488 958.378L454.484 958.374Z" stroke="#00ADA9" stroke-miterlimit="10"/>
<path d="M411.046 982.013L465.186 1029.54L459.615 973.313L413.652 974.752C409.886 974.877 408.212 979.534 411.042 982.018L411.046 982.013Z" stroke="#00ADA9" stroke-miterlimit="10"/>
<path d="M521.415 1017.3L467.345 969.698L472.833 1025.93L518.796 1024.57C522.558 1024.45 524.241 1019.79 521.419 1017.31L521.415 1017.3Z" stroke="#00ADA9" stroke-miterlimit="10"/>
<path d="M477.977 1040.94L532.117 1088.47L526.546 1032.24L480.583 1033.68C476.817 1033.81 475.143 1038.46 477.973 1040.95L477.977 1040.94Z" stroke="#00ADA9" stroke-miterlimit="10"/>
<path d="M588.081 1076L534.011 1028.4L539.499 1084.63L585.463 1083.27C589.224 1083.15 590.907 1078.49 588.086 1076.01L588.081 1076Z" stroke="#00ADA9" stroke-miterlimit="10"/>
<path d="M544.643 1099.64L598.783 1147.17L593.212 1090.94L547.249 1092.38C543.483 1092.51 541.809 1097.16 544.639 1099.65L544.643 1099.64Z" stroke="#00ADA9" stroke-miterlimit="10"/>
<path d="M655.012 1134.93L600.942 1087.33L606.43 1143.56L652.394 1142.2C656.155 1142.08 657.838 1137.42 655.017 1134.94L655.012 1134.93Z" stroke="#00ADA9" stroke-miterlimit="10"/>
<path d="M611.574 1158.57L665.714 1206.1L660.143 1149.87L614.18 1151.31C610.414 1151.44 608.74 1156.09 611.57 1158.58L611.574 1158.57Z" stroke="#00ADA9" stroke-miterlimit="10"/>
<path d="M18.4877 646.281L-35.5825 598.674L-30.0945 654.911L15.8693 653.547C19.6308 653.426 21.3137 648.769 18.4923 646.285L18.4877 646.281Z" stroke="#00ADA9" stroke-miterlimit="10"/>
<path d="M-24.95 669.92L29.1897 717.447L23.619 661.22L-22.3444 662.659C-26.11 662.784 -27.7841 667.441 -24.954 669.924L-24.95 669.92Z" stroke="#00ADA9" stroke-miterlimit="10"/>
<path d="M85.4188 705.212L31.3487 657.605L36.8366 713.842L82.8004 712.477C86.5619 712.357 88.2448 707.7 85.4235 705.216L85.4188 705.212Z" stroke="#00ADA9" stroke-miterlimit="10"/>
<path d="M41.9812 728.85L96.1209 776.378L90.5502 720.151L44.5868 721.589C40.8212 721.715 39.147 726.371 41.9771 728.855L41.9812 728.85Z" stroke="#00ADA9" stroke-miterlimit="10"/>
<path d="M152.215 764.023L98.145 716.416L103.633 772.653L149.597 771.289C153.358 771.169 155.041 766.511 152.22 764.027L152.215 764.023Z" stroke="#00ADA9" stroke-miterlimit="10"/>
<path d="M108.782 787.666L162.922 835.194L157.351 778.966L111.388 780.405C107.622 780.53 105.948 785.187 108.778 787.671L108.782 787.666Z" stroke="#00ADA9" stroke-miterlimit="10"/>
<path d="M219.146 822.954L165.076 775.347L170.564 831.584L216.528 830.22C220.289 830.099 221.972 825.442 219.151 822.958L219.146 822.954Z" stroke="#00ADA9" stroke-miterlimit="10"/>
<path d="M175.713 846.596L229.853 894.124L224.282 837.897L178.319 839.335C174.553 839.461 172.879 844.117 175.709 846.601L175.713 846.596Z" stroke="#00ADA9" stroke-miterlimit="10"/>
<path d="M285.812 881.651L231.742 834.044L237.23 890.281L283.194 888.917C286.956 888.796 288.638 884.139 285.817 881.655L285.812 881.651Z" stroke="#00ADA9" stroke-miterlimit="10"/>
<path d="M242.375 905.289L296.515 952.817L290.944 896.59L244.98 898.029C241.215 898.154 239.541 902.81 242.371 905.294L242.375 905.289Z" stroke="#00ADA9" stroke-miterlimit="10"/>
<path d="M352.744 940.581L298.674 892.974L304.161 949.211L350.125 947.847C353.887 947.726 355.57 943.069 352.748 940.585L352.744 940.581Z" stroke="#00ADA9" stroke-miterlimit="10"/>
<path d="M309.306 964.22L363.446 1011.75L357.875 955.52L311.912 956.959C308.146 957.084 306.472 961.741 309.302 964.224L309.306 964.22Z" stroke="#00ADA9" stroke-miterlimit="10"/>
<path d="M419.81 999.63L365.739 952.023L371.227 1008.26L417.191 1006.9C420.953 1006.78 422.636 1002.12 419.814 999.634L419.81 999.63Z" stroke="#00ADA9" stroke-miterlimit="10"/>
<path d="M376.372 1023.27L430.512 1070.8L424.941 1014.57L378.977 1016.01C375.212 1016.13 373.538 1020.79 376.368 1023.27L376.372 1023.27Z" stroke="#00ADA9" stroke-miterlimit="10"/>
<path d="M486.741 1058.56L432.671 1010.95L438.159 1067.19L484.122 1065.83C487.884 1065.71 489.567 1061.05 486.745 1058.56L486.741 1058.56Z" stroke="#00ADA9" stroke-miterlimit="10"/>
<path d="M443.303 1082.2L497.443 1129.73L491.872 1073.5L445.909 1074.94C442.143 1075.06 440.469 1079.72 443.299 1082.2L443.303 1082.2Z" stroke="#00ADA9" stroke-miterlimit="10"/>
<path d="M553.407 1117.26L499.337 1069.65L504.825 1125.89L550.788 1124.52C554.55 1124.4 556.233 1119.75 553.412 1117.26L553.407 1117.26Z" stroke="#00ADA9" stroke-miterlimit="10"/>
<path d="M509.969 1140.9L564.109 1188.42L558.538 1132.2L512.575 1133.64C508.809 1133.76 507.135 1138.42 509.965 1140.9L509.969 1140.9Z" stroke="#00ADA9" stroke-miterlimit="10"/>
<path d="M620.338 1176.19L566.268 1128.58L571.756 1184.82L617.72 1183.45C621.481 1183.33 623.164 1178.68 620.343 1176.19L620.338 1176.19Z" stroke="#00ADA9" stroke-miterlimit="10"/>
<path d="M576.9 1199.83L631.04 1247.35L625.469 1191.13L579.506 1192.57C575.74 1192.69 574.066 1197.35 576.896 1199.83L576.9 1199.83Z" stroke="#00ADA9" stroke-miterlimit="10"/>
<path d="M-60.5537 710.357L-6.41395 757.885L-11.9847 701.658L-57.9481 703.096C-61.7137 703.222 -63.3878 707.878 -60.5577 710.362L-60.5537 710.357Z" stroke="#00ADA9" stroke-miterlimit="10"/>
<path d="M49.8151 745.649L-4.255 698.042L1.23294 754.279L47.1967 752.915C50.9582 752.794 52.6411 748.137 49.8198 745.653L49.8151 745.649Z" stroke="#00ADA9" stroke-miterlimit="10"/>
<path d="M6.37748 769.287L60.5172 816.815L54.9465 760.588L8.98306 762.027C5.21747 762.152 3.54331 766.809 6.37338 769.292L6.37748 769.287Z" stroke="#00ADA9" stroke-miterlimit="10"/>
<path d="M116.611 804.461L62.5413 756.854L68.0292 813.091L113.993 811.727C117.755 811.606 119.437 806.949 116.616 804.465L116.611 804.461Z" stroke="#00ADA9" stroke-miterlimit="10"/>
<path d="M73.1784 828.103L127.318 875.631L121.747 819.404L75.7839 820.843C72.0184 820.968 70.3443 825.625 73.1743 828.108L73.1784 828.103Z" stroke="#00ADA9" stroke-miterlimit="10"/>
<path d="M183.543 863.391L129.472 815.784L134.96 872.021L180.924 870.657C184.686 870.536 186.369 865.879 183.547 863.395L183.543 863.391Z" stroke="#00ADA9" stroke-miterlimit="10"/>
<path d="M140.11 887.034L194.249 934.562L188.679 878.334L142.715 879.773C138.95 879.898 137.275 884.555 140.105 887.038L140.11 887.034Z" stroke="#00ADA9" stroke-miterlimit="10"/>
<path d="M250.209 922.088L196.139 874.482L201.627 930.718L247.59 929.354C251.352 929.234 253.035 924.576 250.213 922.092L250.209 922.088Z" stroke="#00ADA9" stroke-miterlimit="10"/>
<path d="M206.771 945.727L260.911 993.255L255.34 937.027L209.377 938.466C205.611 938.591 203.937 943.248 206.767 945.731L206.771 945.727Z" stroke="#00ADA9" stroke-miterlimit="10"/>
<path d="M317.14 981.019L263.07 933.412L268.558 989.649L314.522 988.285C318.283 988.164 319.966 983.507 317.145 981.023L317.14 981.019Z" stroke="#00ADA9" stroke-miterlimit="10"/>
<path d="M273.702 1004.66L327.842 1052.18L322.271 995.958L276.308 997.396C272.542 997.522 270.868 1002.18 273.698 1004.66L273.702 1004.66Z" stroke="#00ADA9" stroke-miterlimit="10"/>
<path d="M384.206 1040.07L330.136 992.461L335.624 1048.7L381.587 1047.33C385.349 1047.21 387.032 1042.56 384.211 1040.07L384.206 1040.07Z" stroke="#00ADA9" stroke-miterlimit="10"/>
<path d="M340.768 1063.71L394.908 1111.23L389.337 1055.01L343.374 1056.45C339.608 1056.57 337.934 1061.23 340.764 1063.71L340.768 1063.71Z" stroke="#00ADA9" stroke-miterlimit="10"/>
<path d="M451.137 1099L397.067 1051.39L402.555 1107.63L448.519 1106.26C452.28 1106.14 453.963 1101.49 451.142 1099L451.137 1099Z" stroke="#00ADA9" stroke-miterlimit="10"/>
<path d="M407.699 1122.64L461.839 1170.16L456.268 1113.94L410.305 1115.38C406.539 1115.5 404.865 1120.16 407.695 1122.64L407.699 1122.64Z" stroke="#00ADA9" stroke-miterlimit="10"/>
<path d="M517.803 1157.7L463.733 1110.09L469.221 1166.33L515.185 1164.96C518.946 1164.84 520.629 1160.18 517.808 1157.7L517.803 1157.7Z" stroke="#00ADA9" stroke-miterlimit="10"/>
<path d="M474.366 1181.33L528.505 1228.86L522.935 1172.63L476.971 1174.07C473.206 1174.2 471.531 1178.85 474.361 1181.34L474.366 1181.33Z" stroke="#00ADA9" stroke-miterlimit="10"/>
<path d="M584.734 1216.63L530.664 1169.02L536.152 1225.26L582.116 1223.89C585.877 1223.77 587.56 1219.11 584.739 1216.63L584.734 1216.63Z" stroke="#00ADA9" stroke-miterlimit="10"/>
<path d="M541.297 1240.26L595.436 1287.79L589.866 1231.56L543.902 1233C540.137 1233.13 538.462 1237.79 541.293 1240.27L541.297 1240.26Z" stroke="#00ADA9" stroke-miterlimit="10"/>
</g>
</svg>
