<svg width="582" height="1026" viewBox="0 0 582 1026" fill="none" xmlns="http://www.w3.org/2000/svg">
<g opacity="0.2">
<path d="M491.084 -13.1966L545.224 34.3312L539.653 -21.8961L493.69 -20.4574C489.924 -20.3321 488.25 -15.6755 491.08 -13.1919L491.084 -13.1966Z" stroke="#00ADA9" stroke-miterlimit="10"/>
<path d="M601.583 22.2097L547.513 -25.397L553.001 30.8399L598.965 29.4757C602.727 29.3551 604.409 24.6979 601.588 22.2138L601.583 22.2097Z" stroke="#00ADA9" stroke-miterlimit="10"/>
<path d="M558.146 45.8484L612.285 93.3761L606.715 37.1489L560.751 38.5876C556.986 38.7128 555.312 43.3695 558.142 45.853L558.146 45.8484Z" stroke="#00ADA9" stroke-miterlimit="10"/>
<path d="M388.55 -31.6896L442.689 15.8382L437.119 -40.389L391.155 -38.9503C387.39 -38.8251 385.715 -34.1684 388.545 -31.6849L388.55 -31.6896Z" stroke="#00ADA9" stroke-miterlimit="10"/>
<path d="M498.918 3.60229L444.848 -44.0045L450.336 12.2324L496.3 10.8683C500.062 10.7476 501.744 6.09044 498.923 3.60636L498.918 3.60229Z" stroke="#00ADA9" stroke-miterlimit="10"/>
<path d="M455.481 27.2409L509.62 74.7686L504.05 18.5414L458.086 19.9801C454.321 20.1054 452.647 24.762 455.477 27.2455L455.481 27.2409Z" stroke="#00ADA9" stroke-miterlimit="10"/>
<path d="M565.98 62.6473L511.91 15.0405L517.397 71.2774L563.361 69.9133C567.123 69.7926 568.806 65.1354 565.984 62.6514L565.98 62.6473Z" stroke="#00ADA9" stroke-miterlimit="10"/>
<path d="M522.542 86.2858L576.682 133.814L571.111 77.5863L525.148 79.025C521.382 79.1503 519.708 83.807 522.538 86.2905L522.542 86.2858Z" stroke="#00ADA9" stroke-miterlimit="10"/>
<path d="M632.911 121.578L578.841 73.9709L584.329 130.208L630.292 128.844C634.054 128.723 635.737 124.066 632.915 121.582L632.911 121.578Z" stroke="#00ADA9" stroke-miterlimit="10"/>
<path d="M397.313 -14.0721L343.243 -61.6789L348.731 -5.44202L394.695 -6.80615C398.456 -6.92678 400.139 -11.584 397.318 -14.068L397.313 -14.0721Z" stroke="#00ADA9" stroke-miterlimit="10"/>
<path d="M353.875 9.56639L408.015 57.0941L402.444 0.866919L356.481 2.30561C352.715 2.43089 351.041 7.08751 353.871 9.57104L353.875 9.56639Z" stroke="#00ADA9" stroke-miterlimit="10"/>
<path d="M464.244 44.8582L410.174 -2.74854L415.662 53.4883L461.626 52.1242C465.387 52.0036 467.07 47.3464 464.249 44.8623L464.244 44.8582Z" stroke="#00ADA9" stroke-miterlimit="10"/>
<path d="M420.807 68.4968L474.946 116.025L469.376 59.7973L423.412 61.236C419.647 61.3613 417.972 66.0179 420.803 68.5014L420.807 68.4968Z" stroke="#00ADA9" stroke-miterlimit="10"/>
<path d="M531.306 103.903L477.235 56.2965L482.723 112.533L528.687 111.169C532.449 111.049 534.132 106.391 531.31 103.907L531.306 103.903Z" stroke="#00ADA9" stroke-miterlimit="10"/>
<path d="M487.868 127.542L542.008 175.07L536.437 118.842L490.473 120.281C486.708 120.406 485.034 125.063 487.864 127.546L487.868 127.542Z" stroke="#00ADA9" stroke-miterlimit="10"/>
<path d="M598.237 162.834L544.167 115.227L549.655 171.464L595.618 170.1C599.38 169.979 601.063 165.322 598.241 162.838L598.237 162.834Z" stroke="#00ADA9" stroke-miterlimit="10"/>
<path d="M554.799 186.472L608.939 234L603.368 177.773L557.405 179.211C553.639 179.337 551.965 183.993 554.795 186.477L554.799 186.472Z" stroke="#00ADA9" stroke-miterlimit="10"/>
<path d="M295.043 -32.3317L240.973 -79.9385L246.461 -23.7016L292.425 -25.0658C296.186 -25.1864 297.869 -29.8436 295.048 -32.3277L295.043 -32.3317Z" stroke="#00ADA9" stroke-miterlimit="10"/>
<path d="M251.606 -8.69328L305.745 38.8345L300.175 -17.3928L254.211 -15.9541C250.445 -15.8288 248.771 -11.1722 251.601 -8.68863L251.606 -8.69328Z" stroke="#00ADA9" stroke-miterlimit="10"/>
<path d="M361.709 26.3654L307.639 -21.2413L313.127 34.9955L359.091 33.6314C362.852 33.5108 364.535 28.8536 361.714 26.3695L361.709 26.3654Z" stroke="#00ADA9" stroke-miterlimit="10"/>
<path d="M318.272 50.0039L372.411 97.5316L366.841 41.3044L320.877 42.7431C317.112 42.8684 315.438 47.525 318.268 50.0085L318.272 50.0039Z" stroke="#00ADA9" stroke-miterlimit="10"/>
<path d="M428.641 85.2957L374.57 37.689L380.058 93.9258L426.022 92.5617C429.784 92.4411 431.467 87.7839 428.645 85.2998L428.641 85.2957Z" stroke="#00ADA9" stroke-miterlimit="10"/>
<path d="M385.203 108.934L439.343 156.462L433.772 100.235L387.809 101.673C384.043 101.799 382.369 106.455 385.199 108.939L385.203 108.934Z" stroke="#00ADA9" stroke-miterlimit="10"/>
<path d="M495.702 144.341L441.632 96.734L447.12 152.971L493.083 151.607C496.845 151.486 498.528 146.829 495.706 144.345L495.702 144.341Z" stroke="#00ADA9" stroke-miterlimit="10"/>
<path d="M452.264 167.979L506.404 215.507L500.833 159.28L454.87 160.719C451.104 160.844 449.43 165.5 452.26 167.984L452.264 167.979Z" stroke="#00ADA9" stroke-miterlimit="10"/>
<path d="M562.633 203.271L508.563 155.664L514.051 211.901L560.015 210.537C563.776 210.416 565.459 205.759 562.638 203.275L562.633 203.271Z" stroke="#00ADA9" stroke-miterlimit="10"/>
<path d="M519.195 226.91L573.335 274.437L567.764 218.21L521.801 219.649C518.035 219.774 516.361 224.431 519.191 226.914L519.195 226.91Z" stroke="#00ADA9" stroke-miterlimit="10"/>
<path d="M629.299 261.968L575.229 214.361L580.717 270.598L626.681 269.234C630.442 269.114 632.125 264.456 629.304 261.972L629.299 261.968Z" stroke="#00ADA9" stroke-miterlimit="10"/>
<path d="M585.862 285.607L640.001 333.135L634.431 276.907L588.467 278.346C584.702 278.471 583.027 283.128 585.857 285.611L585.862 285.607Z" stroke="#00ADA9" stroke-miterlimit="10"/>
<path d="M148.141 -28.0043L202.281 19.5234L196.71 -36.7038L150.746 -35.2651C146.981 -35.1398 145.307 -30.4832 148.137 -27.9997L148.141 -28.0043Z" stroke="#00ADA9" stroke-miterlimit="10"/>
<path d="M258.51 7.28749L204.44 -40.3193L209.927 15.9176L255.891 14.5535C259.653 14.4328 261.336 9.77566 258.514 7.29158L258.51 7.28749Z" stroke="#00ADA9" stroke-miterlimit="10"/>
<path d="M215.072 30.9261L269.212 78.4539L263.641 22.2266L217.677 23.6653C213.912 23.7906 212.238 28.4472 215.068 30.9308L215.072 30.9261Z" stroke="#00ADA9" stroke-miterlimit="10"/>
<path d="M325.176 65.9846L271.106 18.3779L276.594 74.6147L322.557 73.2506C326.319 73.13 328.002 68.4728 325.181 65.9887L325.176 65.9846Z" stroke="#00ADA9" stroke-miterlimit="10"/>
<path d="M281.738 89.6233L335.878 137.151L330.307 80.9238L284.344 82.3625C280.578 82.4878 278.904 87.1444 281.734 89.6279L281.738 89.6233Z" stroke="#00ADA9" stroke-miterlimit="10"/>
<path d="M392.107 124.915L338.037 77.3084L343.525 133.545L389.489 132.181C393.25 132.06 394.933 127.403 392.112 124.919L392.107 124.915Z" stroke="#00ADA9" stroke-miterlimit="10"/>
<path d="M348.669 148.554L402.809 196.082L397.238 139.854L351.275 141.293C347.509 141.418 345.835 146.075 348.665 148.558L348.669 148.554Z" stroke="#00ADA9" stroke-miterlimit="10"/>
<path d="M459.168 183.96L405.098 136.353L410.586 192.59L456.55 191.226C460.311 191.105 461.994 186.448 459.173 183.964L459.168 183.96Z" stroke="#00ADA9" stroke-miterlimit="10"/>
<path d="M415.731 207.599L469.87 255.126L464.3 198.899L418.336 200.338C414.57 200.463 412.896 205.12 415.726 207.603L415.731 207.599Z" stroke="#00ADA9" stroke-miterlimit="10"/>
<path d="M526.099 242.89L472.029 195.284L477.517 251.521L523.481 250.156C527.242 250.036 528.925 245.379 526.104 242.895L526.099 242.89Z" stroke="#00ADA9" stroke-miterlimit="10"/>
<path d="M482.662 266.529L536.801 314.057L531.231 257.83L485.267 259.268C481.502 259.394 479.827 264.05 482.657 266.534L482.662 266.529Z" stroke="#00ADA9" stroke-miterlimit="10"/>
<path d="M592.766 301.588L538.695 253.981L544.183 310.218L590.147 308.854C593.909 308.733 595.591 304.076 592.77 301.592L592.766 301.588Z" stroke="#00ADA9" stroke-miterlimit="10"/>
<path d="M549.328 325.226L603.468 372.754L597.897 316.527L551.933 317.966C548.168 318.091 546.494 322.747 549.324 325.231L549.328 325.226Z" stroke="#00ADA9" stroke-miterlimit="10"/>
<path d="M659.697 360.518L605.626 312.911L611.114 369.148L657.078 367.784C660.84 367.663 662.523 363.006 659.701 360.522L659.697 360.518Z" stroke="#00ADA9" stroke-miterlimit="10"/>
<path d="M155.975 -11.2054L101.905 -58.8122L107.393 -2.57532L153.356 -3.93944C157.118 -4.06007 158.801 -8.71725 155.979 -11.2013L155.975 -11.2054Z" stroke="#00ADA9" stroke-miterlimit="10"/>
<path d="M112.537 12.4332L166.677 59.9609L161.106 3.73369L115.143 5.17239C111.377 5.29767 109.703 9.9543 112.533 12.4378L112.537 12.4332Z" stroke="#00ADA9" stroke-miterlimit="10"/>
<path d="M222.906 47.725L168.836 0.11824L174.324 56.3551L220.287 54.991C224.049 54.8704 225.732 50.2132 222.911 47.7291L222.906 47.725Z" stroke="#00ADA9" stroke-miterlimit="10"/>
<path d="M179.468 71.3636L233.608 118.891L228.037 62.6641L182.074 64.1028C178.308 64.2281 176.634 68.8847 179.464 71.3683L179.468 71.3636Z" stroke="#00ADA9" stroke-miterlimit="10"/>
<path d="M289.572 106.422L235.502 58.8154L240.99 115.052L286.954 113.688C290.715 113.568 292.398 108.91 289.577 106.426L289.572 106.422Z" stroke="#00ADA9" stroke-miterlimit="10"/>
<path d="M246.134 130.061L300.274 177.589L294.703 121.361L248.74 122.8C244.974 122.925 243.3 127.582 246.13 130.065L246.134 130.061Z" stroke="#00ADA9" stroke-miterlimit="10"/>
<path d="M356.503 165.353L302.433 117.746L307.921 173.983L353.885 172.619C357.646 172.498 359.329 167.841 356.508 165.357L356.503 165.353Z" stroke="#00ADA9" stroke-miterlimit="10"/>
<path d="M313.066 188.991L367.205 236.519L361.635 180.292L315.671 181.73C311.905 181.856 310.231 186.512 313.061 188.996L313.066 188.991Z" stroke="#00ADA9" stroke-miterlimit="10"/>
<path d="M423.564 224.398L369.494 176.791L374.982 233.028L420.946 231.664C424.708 231.543 426.39 226.886 423.569 224.402L423.564 224.398Z" stroke="#00ADA9" stroke-miterlimit="10"/>
<path d="M380.127 248.036L434.266 295.564L428.696 239.337L382.732 240.775C378.967 240.901 377.293 245.557 380.123 248.041L380.127 248.036Z" stroke="#00ADA9" stroke-miterlimit="10"/>
<path d="M490.496 283.328L436.425 235.721L441.913 291.958L487.877 290.594C491.639 290.473 493.322 285.816 490.5 283.332L490.496 283.328Z" stroke="#00ADA9" stroke-miterlimit="10"/>
<path d="M447.058 306.967L501.198 354.494L495.627 298.267L449.663 299.706C445.898 299.831 444.224 304.488 447.054 306.971L447.058 306.967Z" stroke="#00ADA9" stroke-miterlimit="10"/>
<path d="M557.162 342.025L503.092 294.418L508.58 350.655L554.543 349.291C558.305 349.17 559.988 344.513 557.166 342.029L557.162 342.025Z" stroke="#00ADA9" stroke-miterlimit="10"/>
<path d="M513.724 365.664L567.864 413.191L562.293 356.964L516.33 358.403C512.564 358.528 510.89 363.185 513.72 365.668L513.724 365.664Z" stroke="#00ADA9" stroke-miterlimit="10"/>
<path d="M624.093 400.956L570.023 353.349L575.511 409.586L621.474 408.222C625.236 408.101 626.919 403.444 624.098 400.96L624.093 400.956Z" stroke="#00ADA9" stroke-miterlimit="10"/>
<path d="M580.655 424.594L634.795 472.122L629.224 415.895L583.261 417.333C579.495 417.459 577.821 422.115 580.651 424.599L580.655 424.594Z" stroke="#00ADA9" stroke-miterlimit="10"/>
<path d="M121.301 30.0506L67.2304 -17.5562L72.7184 38.6807L118.682 37.3166C122.444 37.196 124.127 32.5388 121.305 30.0547L121.301 30.0506Z" stroke="#00ADA9" stroke-miterlimit="10"/>
<path d="M77.8629 53.6892L132.003 101.217L126.432 44.9897L80.4684 46.4284C76.7029 46.5537 75.0287 51.2103 77.8588 53.6938L77.8629 53.6892Z" stroke="#00ADA9" stroke-miterlimit="10"/>
<path d="M188.232 88.981L134.162 41.3742L139.65 97.6111L185.613 96.247C189.375 96.1263 191.058 91.4692 188.236 88.9851L188.232 88.981Z" stroke="#00ADA9" stroke-miterlimit="10"/>
<path d="M144.794 112.62L198.934 160.147L193.363 103.92L147.4 105.359C143.634 105.484 141.96 110.141 144.79 112.624L144.794 112.62Z" stroke="#00ADA9" stroke-miterlimit="10"/>
<path d="M254.898 147.678L200.828 100.071L206.316 156.308L252.28 154.944C256.041 154.823 257.724 150.166 254.903 147.682L254.898 147.678Z" stroke="#00ADA9" stroke-miterlimit="10"/>
<path d="M211.46 171.317L265.6 218.844L260.029 162.617L214.066 164.056C210.3 164.181 208.626 168.838 211.456 171.321L211.46 171.317Z" stroke="#00ADA9" stroke-miterlimit="10"/>
<path d="M321.829 206.609L267.759 159.002L273.247 215.239L319.211 213.875C322.972 213.754 324.655 209.097 321.834 206.613L321.829 206.609Z" stroke="#00ADA9" stroke-miterlimit="10"/>
<path d="M278.391 230.247L332.531 277.775L326.96 221.548L280.997 222.986C277.231 223.112 275.557 227.768 278.387 230.252L278.391 230.247Z" stroke="#00ADA9" stroke-miterlimit="10"/>
<path d="M388.89 265.654L334.82 218.047L340.308 274.284L386.272 272.92C390.033 272.799 391.716 268.142 388.895 265.658L388.89 265.654Z" stroke="#00ADA9" stroke-miterlimit="10"/>
<path d="M345.453 289.292L399.592 336.82L394.022 280.593L348.058 282.031C344.293 282.157 342.618 286.813 345.449 289.297L345.453 289.292Z" stroke="#00ADA9" stroke-miterlimit="10"/>
<path d="M455.821 324.584L401.751 276.977L407.239 333.214L453.203 331.85C456.965 331.729 458.647 327.072 455.826 324.588L455.821 324.584Z" stroke="#00ADA9" stroke-miterlimit="10"/>
<path d="M412.384 348.223L466.523 395.75L460.953 339.523L414.989 340.962C411.224 341.087 409.55 345.744 412.38 348.227L412.384 348.223Z" stroke="#00ADA9" stroke-miterlimit="10"/>
<path d="M522.488 383.281L468.418 335.674L473.905 391.911L519.869 390.547C523.631 390.426 525.314 385.769 522.492 383.285L522.488 383.281Z" stroke="#00ADA9" stroke-miterlimit="10"/>
<path d="M479.05 406.92L533.19 454.447L527.619 398.22L481.656 399.659C477.89 399.784 476.216 404.441 479.046 406.924L479.05 406.92Z" stroke="#00ADA9" stroke-miterlimit="10"/>
<path d="M589.419 442.211L535.349 394.605L540.837 450.842L586.8 449.477C590.562 449.357 592.245 444.7 589.423 442.216L589.419 442.211Z" stroke="#00ADA9" stroke-miterlimit="10"/>
<path d="M545.981 465.85L600.121 513.378L594.55 457.151L548.587 458.589C544.821 458.715 543.147 463.371 545.977 465.855L545.981 465.85Z" stroke="#00ADA9" stroke-miterlimit="10"/>
<path d="M656.215 501.023L602.145 453.416L607.633 509.653L653.597 508.289C657.358 508.169 659.041 503.511 656.22 501.027L656.215 501.023Z" stroke="#00ADA9" stroke-miterlimit="10"/>
<path d="M85.6968 70.4882L31.6267 22.8814L37.1146 79.1183L83.0784 77.7542C86.8399 77.6335 88.5228 72.9763 85.7015 70.4923L85.6968 70.4882Z" stroke="#00ADA9" stroke-miterlimit="10"/>
<path d="M42.2591 94.1267L96.3988 141.654L90.8281 85.4272L44.8647 86.8659C41.0991 86.9912 39.425 91.6478 42.255 94.1313L42.2591 94.1267Z" stroke="#00ADA9" stroke-miterlimit="10"/>
<path d="M152.628 129.419L98.5578 81.8118L104.046 138.049L150.01 136.685C153.771 136.564 155.454 131.907 152.633 129.423L152.628 129.419Z" stroke="#00ADA9" stroke-miterlimit="10"/>
<path d="M109.19 153.057L163.33 200.585L157.759 144.358L111.796 145.796C108.03 145.922 106.356 150.578 109.186 153.062L109.19 153.057Z" stroke="#00ADA9" stroke-miterlimit="10"/>
<path d="M219.294 188.116L165.224 140.509L170.712 196.746L216.676 195.382C220.437 195.261 222.12 190.604 219.299 188.12L219.294 188.116Z" stroke="#00ADA9" stroke-miterlimit="10"/>
<path d="M175.857 211.754L229.996 259.282L224.426 203.055L178.462 204.493C174.696 204.619 173.022 209.275 175.852 211.759L175.857 211.754Z" stroke="#00ADA9" stroke-miterlimit="10"/>
<path d="M286.225 247.046L232.155 199.439L237.643 255.676L283.607 254.312C287.368 254.191 289.051 249.534 286.23 247.05L286.225 247.046Z" stroke="#00ADA9" stroke-miterlimit="10"/>
<path d="M242.788 270.685L296.927 318.212L291.357 261.985L245.393 263.424C241.628 263.549 239.954 268.206 242.784 270.689L242.788 270.685Z" stroke="#00ADA9" stroke-miterlimit="10"/>
<path d="M353.287 306.091L299.216 258.484L304.704 314.721L350.668 313.357C354.43 313.236 356.113 308.579 353.291 306.095L353.287 306.091Z" stroke="#00ADA9" stroke-miterlimit="10"/>
<path d="M309.849 329.73L363.989 377.257L358.418 321.03L312.454 322.469C308.689 322.594 307.015 327.251 309.845 329.734L309.849 329.73Z" stroke="#00ADA9" stroke-miterlimit="10"/>
<path d="M420.218 365.021L366.148 317.415L371.636 373.652L417.599 372.287C421.361 372.167 423.044 367.51 420.222 365.026L420.218 365.021Z" stroke="#00ADA9" stroke-miterlimit="10"/>
<path d="M376.78 388.66L430.92 436.188L425.349 379.96L379.386 381.399C375.62 381.524 373.946 386.181 376.776 388.665L376.78 388.66Z" stroke="#00ADA9" stroke-miterlimit="10"/>
<path d="M486.884 423.719L432.814 376.112L438.302 432.349L484.266 430.985C488.027 430.864 489.71 426.207 486.889 423.723L486.884 423.719Z" stroke="#00ADA9" stroke-miterlimit="10"/>
<path d="M443.446 447.357L497.586 494.885L492.015 438.658L446.052 440.096C442.286 440.222 440.612 444.878 443.442 447.362L443.446 447.357Z" stroke="#00ADA9" stroke-miterlimit="10"/>
<path d="M553.815 482.649L499.745 435.042L505.233 491.279L551.197 489.915C554.958 489.794 556.641 485.137 553.82 482.653L553.815 482.649Z" stroke="#00ADA9" stroke-miterlimit="10"/>
<path d="M510.377 506.287L564.517 553.815L558.947 497.588L512.983 499.027C509.217 499.152 507.543 503.809 510.373 506.292L510.377 506.287Z" stroke="#00ADA9" stroke-miterlimit="10"/>
<path d="M620.611 541.461L566.541 493.854L572.029 550.091L617.993 548.727C621.755 548.606 623.437 543.949 620.616 541.465L620.611 541.461Z" stroke="#00ADA9" stroke-miterlimit="10"/>
<path d="M577.178 565.103L631.318 612.631L625.747 556.404L579.784 557.843C576.018 557.968 574.344 562.625 577.174 565.108L577.178 565.103Z" stroke="#00ADA9" stroke-miterlimit="10"/>
</g>
</svg>
