<svg width="23" height="25" viewBox="0 0 23 25" fill="none" xmlns="http://www.w3.org/2000/svg">
<path d="M0.720004 0.5C0.690004 0.593 0.660004 0.685 0.660004 0.808V24.037C0.660004 24.254 0.721004 24.377 0.844004 24.5L12.259 12.407L0.720004 0.5ZM13.029 13.208L15.98 16.253L11.767 18.653C11.767 18.653 6.412 21.697 3.459 23.392L13.029 13.208ZM13.83 12.377L16.996 15.669C17.492 15.393 21.367 13.177 21.92 12.869C22.504 12.531 22.445 12.069 21.949 11.823C21.49 11.568 17.615 9.348 17.029 8.988L13.826 12.38L13.83 12.377ZM13.027 11.577L16.011 8.408L11.752 5.977C11.752 5.977 4.809 2.005 2.499 0.679L13.029 11.577H13.027Z" fill="white"/>
</svg>
