<svg width="25" height="25" viewBox="0 0 25 25" fill="none" xmlns="http://www.w3.org/2000/svg">
<g clip-path="url(#clip0_824_5)">
<path d="M1.71997 0.5C1.68997 0.593 1.65997 0.685 1.65997 0.808V24.037C1.65997 24.254 1.72097 24.377 1.84397 24.5L13.259 12.407L1.71997 0.5ZM14.029 13.208L16.98 16.253L12.767 18.653C12.767 18.653 7.41197 21.697 4.45897 23.392L14.029 13.208ZM14.83 12.377L17.996 15.669C18.492 15.393 22.367 13.177 22.92 12.869C23.504 12.531 23.445 12.069 22.949 11.823C22.49 11.568 18.615 9.348 18.029 8.988L14.826 12.38L14.83 12.377ZM14.027 11.577L17.011 8.408L12.752 5.977C12.752 5.977 5.80897 2.005 3.49897 0.679L14.029 11.577H14.027Z" fill="#00ADA9"/>
</g>
<defs>
<clipPath id="clip0_824_5">
<rect width="24" height="24" fill="white" transform="translate(0.5 0.5)"/>
</clipPath>
</defs>
</svg>
