<svg width="109" height="58" viewBox="0 0 109 58" fill="none" xmlns="http://www.w3.org/2000/svg">
<path d="M29.8353 11.2134H103.103C107.584 11.2134 109.75 16.6165 106.476 19.6285L66.4694 56.4444L26.4624 19.6285C23.1887 16.6157 25.3536 11.2134 29.8353 11.2134Z" fill="#00ADA9"/>
<path d="M22.54 11.2134H95.8082C100.289 11.2134 102.455 16.6165 99.1811 19.6285L59.1741 56.4444L19.1671 19.6285C15.8934 16.6157 18.0583 11.2134 22.54 11.2134Z" fill="#474143" stroke="white" stroke-width="2" stroke-miterlimit="10" stroke-linecap="square"/>
<path d="M88.5275 11.2134H3L52.0036 56.4444L91.8903 19.6285C95.1541 16.6157 92.9957 11.2134 88.5275 11.2134Z" fill="#E7BA74" stroke="white" stroke-width="2" stroke-miterlimit="10" stroke-linecap="square"/>
<path d="M29.2631 6.61722V11.4325H23.6459V17.0497H18.8307V11.4325H13.2134V6.61722H18.8307V1H23.6459V6.61722H29.2631Z" fill="#474143" stroke="white" stroke-width="2" stroke-miterlimit="10"/>
</svg>
