<svg width="198" height="58" viewBox="0 0 198 58" fill="none" xmlns="http://www.w3.org/2000/svg">
<path d="M118.835 11.2134H192.103C196.584 11.2134 198.75 16.6165 195.476 19.6285L155.469 56.4444L115.462 19.6285C112.189 16.6157 114.354 11.2134 118.835 11.2134Z" fill="#00ADA9"/>
<path d="M111.54 11.2134H184.808C189.289 11.2134 191.455 16.6165 188.181 19.6285L148.174 56.4444L108.167 19.6285C104.893 16.6157 107.058 11.2134 111.54 11.2134Z" fill="#474143" stroke="white" stroke-width="2" stroke-miterlimit="10" stroke-linecap="square"/>
<path d="M177.528 11.2134H92L141.004 56.4444L180.89 19.6285C184.154 16.6157 181.996 11.2134 177.528 11.2134Z" fill="#E7BA74" stroke="white" stroke-width="2" stroke-miterlimit="10" stroke-linecap="square"/>
<path d="M118.263 6.61722V11.4325H112.646V17.0497H107.831V11.4325H102.213V6.61722H107.831V1H112.646V6.61722H118.263Z" fill="#474143" stroke="white" stroke-width="2" stroke-miterlimit="10"/>
<path d="M25.3891 34.6522C23.6719 34.6522 22.2981 34.1512 21.3056 33.1631C20.3131 32.1742 19.8103 30.5705 19.8103 28.3955C19.8103 26.2205 20.3131 24.5849 21.3049 23.5873C22.2974 22.589 23.6711 22.083 25.3891 22.083C27.107 22.083 28.4801 22.589 29.4726 23.5873C30.4643 24.5856 30.9671 26.2031 30.9671 28.3955C30.9671 29.4757 30.8362 30.4204 30.5771 31.2034C30.3159 31.9951 29.9405 32.6527 29.4624 33.158C28.9829 33.6655 28.387 34.0468 27.6921 34.2904C27.0074 34.5304 26.2324 34.6522 25.3891 34.6522ZM25.3891 24.698C24.409 24.698 23.7199 25.0054 23.2811 25.6391C22.8322 26.2887 22.6044 27.2166 22.6044 28.3955C22.6044 29.6824 22.83 30.6248 23.2746 31.1983C23.7119 31.7624 24.4039 32.0364 25.3891 32.0364C26.3743 32.0364 27.0656 31.7624 27.5036 31.1983C27.9482 30.6248 28.1738 29.6816 28.1738 28.3955C28.1738 27.2166 27.946 26.2887 27.4971 25.6391C27.059 25.0061 26.3692 24.6987 25.3898 24.6987L25.3891 24.698ZM26.1466 20.2523C25.8388 20.2523 25.6481 20.0617 25.6481 19.755V17.7149C25.6481 17.4082 25.8395 17.2182 26.1466 17.2182H28.0552C28.3629 17.2182 28.5536 17.4089 28.5536 17.7149V19.7557C28.5536 20.0624 28.3622 20.2531 28.0552 20.2531H26.1466V20.2523ZM22.723 20.2523C22.4153 20.2523 22.2239 20.0617 22.2239 19.755V17.7149C22.2239 17.4082 22.4153 17.2182 22.723 17.2182H24.6316C24.9394 17.2182 25.1301 17.4089 25.1301 17.7149V19.7557C25.1301 20.0624 24.9387 20.2531 24.6316 20.2531H22.723V20.2523Z" fill="#474143"/>
<path d="M28.0544 17.435C28.2414 17.435 28.3353 17.5285 28.3353 17.7148V19.7557C28.3353 19.942 28.2414 20.0356 28.0544 20.0356H26.1458C25.9588 20.0356 25.865 19.9428 25.865 19.7557V17.7148C25.865 17.5285 25.9581 17.435 26.1458 17.435H28.0544ZM24.6309 17.435C24.8179 17.435 24.9118 17.5285 24.9118 17.7148V19.7557C24.9118 19.942 24.8179 20.0356 24.6309 20.0356H22.7223C22.5353 20.0356 22.4415 19.9428 22.4415 19.7557V17.7148C22.4415 17.5285 22.5346 17.435 22.7223 17.435H24.6309ZM25.3891 22.2997C27.0539 22.2997 28.363 22.7797 29.3176 23.7403C30.2723 24.7009 30.7489 26.2524 30.7489 28.3955C30.7489 29.4576 30.6223 30.3711 30.3698 31.1352C30.1173 31.9001 29.7622 32.5243 29.3038 33.0086C28.8454 33.4936 28.2836 33.8518 27.62 34.0852C26.9557 34.318 26.2121 34.4347 25.3891 34.4347C23.7236 34.4347 22.4145 33.9598 21.4606 33.0086C20.5067 32.0582 20.0293 30.5197 20.0293 28.3948C20.0293 26.2698 20.5067 24.6995 21.4606 23.7396C22.4145 22.7797 23.7236 22.299 25.3891 22.299M25.3891 32.2532C26.4362 32.2532 27.1987 31.9458 27.6761 31.331C28.1527 30.7162 28.3913 29.7367 28.3913 28.3948C28.3913 27.1644 28.1527 26.2045 27.6761 25.5151C27.1987 24.8263 26.4362 24.4805 25.3891 24.4805C24.342 24.4805 23.5788 24.8263 23.1014 25.5151C22.6248 26.2053 22.3862 27.1652 22.3862 28.3948C22.3862 29.7367 22.6248 30.7155 23.1014 31.331C23.5788 31.9458 24.3406 32.2532 25.3891 32.2532ZM28.0544 17H26.1458C25.7173 17 25.4284 17.2871 25.4284 17.7148V19.7557C25.4284 20.1827 25.7165 20.4706 26.1458 20.4706H28.0544C28.483 20.4706 28.7719 20.1835 28.7719 19.7557V17.7148C28.7719 17.2878 28.4837 17 28.0544 17ZM24.6309 17H22.7223C22.2937 17 22.0049 17.2871 22.0049 17.7148V19.7557C22.0049 20.1827 22.293 20.4706 22.7223 20.4706H24.6309C25.0595 20.4706 25.3484 20.1835 25.3484 19.7557V17.7148C25.3484 17.2878 25.0602 17 24.6309 17ZM25.3891 21.8647C23.6108 21.8647 22.1846 22.3925 21.1499 23.4336C20.1159 24.474 19.592 26.1429 19.592 28.3948C19.592 30.6466 20.1167 32.2851 21.1514 33.316C22.1861 34.347 23.6115 34.869 25.3891 34.869C26.2572 34.869 27.0568 34.7428 27.7648 34.4949C28.4932 34.2397 29.1175 33.8395 29.6218 33.3066C30.1216 32.7781 30.5131 32.093 30.7853 31.2708C31.0516 30.4661 31.1862 29.4982 31.1862 28.3948C31.1862 26.1429 30.6623 24.4733 29.6283 23.4336C28.5936 22.3925 27.1675 21.8647 25.3898 21.8647H25.3891ZM25.3891 31.8189C24.4759 31.8189 23.8407 31.5724 23.4471 31.0656C23.033 30.5313 22.8227 29.633 22.8227 28.3955C22.8227 27.2616 23.0374 26.3756 23.4616 25.7623C23.856 25.1932 24.4868 24.9162 25.3898 24.9162C26.2928 24.9162 26.923 25.1932 27.3173 25.763C27.7408 26.3756 27.9555 27.2616 27.9555 28.3962C27.9555 29.6338 27.7452 30.532 27.3312 31.0664C26.9375 31.5731 26.303 31.8196 25.3898 31.8196L25.3891 31.8189Z" fill="white"/>
<path d="M36.2192 40.0222C35.9158 40.0222 35.72 39.8272 35.72 39.5249V37.9031C35.72 37.5964 35.9114 37.4057 36.2192 37.4057H39.5867C39.9498 37.4057 40.2714 37.3666 40.5704 37.2861C40.8506 37.2143 41.1002 37.0882 41.3148 36.9113C41.6 36.6706 41.7201 36.3748 41.7914 36.1986L41.7972 36.1841C41.9428 35.8289 41.9559 35.5186 41.9806 34.9553C41.9871 34.7682 41.9871 34.6 41.985 34.455H39.193C38.3526 34.455 37.582 34.3542 36.9017 34.1563C36.2046 33.9482 35.6043 33.6118 35.1146 33.1558C34.6206 32.6853 34.2429 32.0676 33.9904 31.3172C33.7423 30.5654 33.6172 29.6396 33.6172 28.5637C33.6172 27.4878 33.7678 26.512 34.0639 25.7079C34.3659 24.8843 34.7785 24.2007 35.2907 23.6743C35.8008 23.1451 36.4076 22.7405 37.0923 22.4745C37.7785 22.2149 38.5032 22.0837 39.2483 22.0837C40.967 22.0837 42.3328 22.5897 43.3078 23.588C44.2799 24.5885 44.7725 26.206 44.7725 28.3962V31.8392H61.6806C61.3684 31.4644 61.0948 31.0243 60.862 30.527C60.5469 29.8462 60.3876 29.0255 60.3876 28.0866C60.3876 27.5023 60.4756 26.8505 60.6488 26.1487C60.8227 25.4455 61.1501 24.7836 61.6224 24.1811C62.0924 23.5808 62.7415 23.0762 63.5506 22.6811C64.3452 22.2852 65.3835 22.0844 66.6365 22.0844C67.776 22.0844 68.7721 22.2939 69.5973 22.7072C70.4275 23.1204 71.1071 23.704 71.6179 24.4399L71.6252 24.4515C71.7743 24.6987 71.722 24.951 71.4855 25.1265L70.2485 26.135C70.1415 26.2154 70.0317 26.2568 69.9218 26.2568C69.8279 26.2568 69.6889 26.2263 69.5602 26.0799C68.7547 25.1504 67.7723 24.6995 66.5557 24.6995C65.4548 24.6995 64.6653 25.0076 64.1429 25.642C63.6168 26.2756 63.3505 27.089 63.3505 28.0613C63.3505 28.7159 63.4567 29.2771 63.667 29.7288C63.8817 30.1949 64.1218 30.5712 64.4012 30.8793C64.6741 31.1751 64.952 31.3999 65.2249 31.5449C65.4934 31.6855 65.708 31.7848 65.8623 31.8392H71.9126C72.2204 31.8392 72.4118 32.0299 72.4118 32.3366V33.9584C72.4118 34.2651 72.2204 34.4557 71.9126 34.4557H44.7725V34.9248C44.7667 34.9922 44.6496 36.5858 44.4058 37.223C44.1599 37.8668 43.8121 38.4019 43.3718 38.8144C42.9258 39.2269 42.383 39.5358 41.7572 39.7322C41.1242 39.9244 40.4315 40.0222 39.6966 40.0222H36.217H36.2192ZM39.2498 24.6995C38.3788 24.6995 37.7072 25.0366 37.1964 25.729C36.6761 26.43 36.412 27.3834 36.412 28.5637C36.412 29.8201 36.6587 30.6887 37.1447 31.1454C37.6301 31.6058 38.3759 31.8385 39.3626 31.8385H41.9813V28.3955C41.9813 27.2145 41.7616 26.285 41.3286 25.6333C40.9081 25.0047 40.2277 24.6987 39.2505 24.6987L39.2498 24.6995Z" fill="#474143"/>
<path d="M66.6387 22.3012C67.7462 22.3012 68.7001 22.4991 69.5012 22.9007C70.3074 23.3024 70.9507 23.8563 71.4404 24.5631C71.5321 24.7154 71.5066 24.843 71.3538 24.9546L70.119 25.9609C70.0506 26.0124 69.9851 26.0385 69.924 26.0385C69.8527 26.0385 69.7865 26.0037 69.7261 25.9356C68.8842 24.9648 67.8277 24.4819 66.5572 24.4819C65.3937 24.4819 64.5366 24.8227 63.9756 25.5035C63.4146 26.1799 63.1337 27.0339 63.1337 28.0605C63.1337 28.7522 63.2457 29.3365 63.4706 29.8194C63.6954 30.3073 63.9501 30.7039 64.2411 31.0243C64.5322 31.3397 64.8276 31.5782 65.1238 31.7363C65.425 31.8936 65.6593 32.0009 65.8281 32.0567H71.9148C72.104 32.0567 72.1957 32.1531 72.1957 32.3365V33.9584C72.1957 34.1461 72.104 34.2382 71.9148 34.2382H44.5564V34.9096C44.5564 34.9096 44.4393 36.5314 44.2043 37.1462C43.9692 37.761 43.6433 38.2648 43.2249 38.6563C42.8014 39.0478 42.2913 39.3378 41.6939 39.5256C41.0922 39.7083 40.4286 39.8055 39.6987 39.8055H36.2192C36.0358 39.8055 35.9383 39.709 35.9383 39.5256V37.9038C35.9383 37.716 36.0351 37.6239 36.2192 37.6239H39.5867C39.9643 37.6239 40.3063 37.5833 40.6272 37.4971C40.9437 37.4159 41.2188 37.273 41.4538 37.0802C41.7907 36.7953 41.9231 36.4553 41.9995 36.2668C42.1574 35.8803 42.1727 35.5548 42.1982 34.9654C42.2084 34.6652 42.2033 34.4166 42.1982 34.2382H39.193C38.3715 34.2382 37.6264 34.1418 36.9636 33.9482C36.3 33.7503 35.7339 33.4349 35.2645 32.9977C34.8003 32.5555 34.443 31.9762 34.1978 31.2491C33.9577 30.5219 33.8355 29.6272 33.8355 28.5651C33.8355 27.503 33.9781 26.5721 34.2691 25.784C34.5602 24.9909 34.9531 24.3355 35.4479 23.8266C35.9427 23.3133 36.5197 22.9319 37.1724 22.6774C37.8302 22.428 38.5193 22.3012 39.2491 22.3012C40.9175 22.3012 42.2135 22.7789 43.1521 23.7396C44.0857 24.7002 44.555 26.2509 44.555 28.3962V32.0567H62.1783C61.7395 31.6297 61.367 31.091 61.0607 30.4349C60.7594 29.7838 60.6066 29.0016 60.6066 28.0859C60.6066 27.5117 60.6932 26.881 60.862 26.1995C61.0301 25.518 61.3415 24.893 61.7956 24.3137C62.2496 23.7345 62.8674 23.256 63.6474 22.8754C64.4231 22.4889 65.4228 22.3012 66.6373 22.3012M39.3604 32.0567H42.1974V28.3962C42.1974 27.1659 41.9675 26.2053 41.5084 25.5136C41.0492 24.827 40.299 24.4819 39.2476 24.4819C38.3141 24.4819 37.569 24.8531 37.0181 25.6006C36.4673 26.343 36.1915 27.3341 36.1915 28.5644C36.1915 29.8861 36.4571 30.801 36.9927 31.3049C37.5231 31.808 38.3141 32.0574 39.3604 32.0574M66.6387 21.8662C65.3515 21.8662 64.2797 22.075 63.4531 22.4868C62.6171 22.8949 61.9433 23.4206 61.4521 24.047C60.961 24.6741 60.6197 25.3635 60.4385 26.0965C60.261 26.815 60.1708 27.4849 60.1708 28.0866C60.1708 29.0567 60.3367 29.9085 60.6648 30.6176C60.8358 30.9837 61.0286 31.3194 61.2418 31.6224H44.9923V28.3969C44.9923 26.148 44.4786 24.4798 43.4664 23.438C42.4478 22.3954 41.0289 21.8669 39.2498 21.8669C38.4785 21.8669 37.7276 22.0032 37.0181 22.2714L37.0145 22.2729C36.3 22.5513 35.6669 22.9725 35.1336 23.5257C34.6017 24.0723 34.1724 24.7821 33.8595 25.6347C33.5539 26.4619 33.3996 27.4479 33.3996 28.5651C33.3996 29.6823 33.5291 30.6125 33.7838 31.3854C34.0487 32.172 34.4452 32.8194 34.9633 33.3131L34.9669 33.3167C35.4814 33.7952 36.1108 34.149 36.8384 34.3665C37.5413 34.571 38.333 34.6747 39.1938 34.6747H41.7681C41.7681 34.7609 41.766 34.853 41.763 34.9502C41.7376 35.5432 41.7216 35.7962 41.5964 36.1036L41.5899 36.1189C41.5215 36.2863 41.4189 36.5394 41.1737 36.7474C40.9845 36.9026 40.764 37.0135 40.5181 37.0766L40.5137 37.078C40.2328 37.1534 39.9301 37.1904 39.5867 37.1904H36.2192C35.7899 37.1904 35.5018 37.4775 35.5018 37.9052V39.5271C35.5018 39.9476 35.7964 40.2419 36.2192 40.2419H39.6987C40.4555 40.2419 41.1693 40.1411 41.8213 39.9432L41.8256 39.9418C42.482 39.7351 43.0524 39.4103 43.5217 38.9768C43.9889 38.5396 44.3549 37.977 44.6125 37.3028C44.8628 36.6467 44.9792 35.1147 44.9923 34.9429L44.9938 34.9117V34.6754H71.9155C72.3448 34.6754 72.633 34.3883 72.633 33.9605V32.3387C72.633 31.911 72.3448 31.6239 71.9155 31.6239H65.9038C65.7932 31.5818 65.6127 31.5028 65.3275 31.3535C65.0787 31.2208 64.8204 31.0113 64.5635 30.7321C64.3015 30.4436 64.0731 30.0854 63.8686 29.6403C63.6714 29.2154 63.5717 28.6855 63.5717 28.0627C63.5717 27.1427 63.8213 26.3756 64.3132 25.7826C64.7927 25.2004 65.5269 24.9184 66.5587 24.9184C67.7083 24.9184 68.6368 25.3447 69.3972 26.2219L69.4001 26.2248C69.5427 26.3865 69.7297 26.475 69.9254 26.475C70.0841 26.475 70.239 26.4191 70.3846 26.3089L70.3969 26.2988L71.6245 25.2983C71.9461 25.0561 72.0218 24.6813 71.8166 24.3406L71.8013 24.3174C71.2694 23.5503 70.5621 22.9435 69.6984 22.5129C68.8442 22.0844 67.8153 21.8669 66.6409 21.8669L66.6387 21.8662ZM39.3619 31.6217C38.4334 31.6217 37.7378 31.4086 37.2954 30.9895C36.853 30.5741 36.6296 29.7585 36.6296 28.5644C36.6296 27.432 36.8792 26.5214 37.3703 25.8594C37.8382 25.2251 38.4523 24.9177 39.2491 24.9177C40.1484 24.9177 40.7684 25.1917 41.146 25.7558C41.5542 26.3706 41.7616 27.2594 41.7616 28.3969V31.6224H39.3611L39.3619 31.6217Z" fill="white"/>
<path d="M75.3398 34.4564C75.032 34.4564 74.8406 34.2657 74.8406 33.9591V32.3373C74.8406 32.0306 75.032 31.8399 75.3398 31.8399H80.7003C81.2031 31.8399 81.6091 31.8 81.9067 31.7217C82.1796 31.65 82.3877 31.5318 82.5266 31.3708C82.6685 31.2063 82.7653 30.9822 82.8141 30.7053C82.8679 30.403 82.8948 30.0115 82.8948 29.5409V27.3043C82.8948 25.5498 81.9198 24.6973 79.9144 24.6973H76.659C76.3512 24.6973 76.1598 24.5066 76.1598 24.2006V22.5788C76.1598 22.2721 76.3512 22.0815 76.659 22.0815H80.7847C82.2545 22.0815 83.4784 22.5041 84.4229 23.3386C85.3746 24.1796 85.8578 25.5049 85.8578 27.2761V29.4568C85.8578 30.4015 85.7741 31.2012 85.6096 31.8327C85.4408 32.4786 85.176 33.0035 84.8223 33.3921C84.4651 33.7843 84.0074 34.0635 83.4617 34.223C82.9356 34.3774 82.2989 34.4557 81.5698 34.4557H75.3398V34.4564Z" fill="#474143"/>
<path d="M80.7847 22.2997C82.2057 22.2997 83.3707 22.7006 84.278 23.5025C85.1854 24.3043 85.6394 25.5622 85.6394 27.2768V29.4576C85.6394 30.3899 85.5587 31.1635 85.3986 31.7783C85.2378 32.3931 84.9918 32.8825 84.6608 33.2464C84.3297 33.6096 83.9091 33.8663 83.4005 34.0149C82.8912 34.1642 82.2814 34.2389 81.5705 34.2389H75.3405C75.1535 34.2389 75.0596 34.1461 75.0596 33.9591V32.3373C75.0596 32.1509 75.1535 32.0574 75.3405 32.0574H80.701C81.2242 32.0574 81.6455 32.0154 81.9634 31.932C82.2814 31.8479 82.5244 31.708 82.6932 31.5122C82.8621 31.3165 82.9741 31.0605 83.0301 30.743C83.0862 30.4262 83.1145 30.0253 83.1145 29.5402V27.3036C83.1145 25.4208 82.0486 24.479 79.9159 24.479H76.6604C76.4734 24.479 76.3796 24.3862 76.3796 24.1992V22.5781C76.3796 22.3918 76.4734 22.2982 76.6604 22.2982H80.7861M80.7861 21.8633H76.6604C76.2318 21.8633 75.943 22.1503 75.943 22.5781V24.1992C75.943 24.6262 76.2311 24.914 76.6604 24.914H79.9159C80.8669 24.914 81.5771 25.1149 82.0253 25.5107C82.4648 25.8986 82.678 26.4851 82.678 27.3036V29.5402C82.678 29.9984 82.6518 30.3776 82.6001 30.6669C82.5579 30.9047 82.4779 31.0939 82.3622 31.2287C82.253 31.3556 82.0813 31.4506 81.8521 31.5108C81.5727 31.5847 81.1849 31.6217 80.701 31.6217H75.3405C74.9119 31.6217 74.623 31.9088 74.623 32.3365V33.9584C74.623 34.3854 74.9112 34.6732 75.3405 34.6732H81.5705C82.3207 34.6732 82.9777 34.592 83.5242 34.4318C84.1085 34.2607 84.5997 33.9605 84.9838 33.5386C85.3615 33.1232 85.6431 32.5678 85.8214 31.8878C85.9909 31.2382 86.0767 30.4204 86.0767 29.4569V27.2761C86.0767 25.4397 85.5696 24.06 84.5684 23.1762C83.5824 22.3055 82.3098 21.864 80.7854 21.864L80.7861 21.8633Z" fill="white"/>
<path d="M15.0556 25.9193V30.1363H10.1363V35.0556H5.91929V30.1363H1V25.9193H5.91929V21H10.1363V25.9193H15.0556Z" fill="#474143" stroke="white" stroke-miterlimit="10"/>
</svg>
