<svg width="52" height="52" viewBox="0 0 52 52" fill="none" xmlns="http://www.w3.org/2000/svg">
<g filter="url(#filter0_b_131_14062)">
<circle cx="26" cy="26" r="26" fill="#E7BA74" fill-opacity="0.1"/>
</g>
<path d="M14 20H38C39.104 20 40 19.104 40 18C40 16.896 39.104 16 38 16H14C12.896 16 12 16.896 12 18C12 19.104 12.896 20 14 20ZM38 24H14C12.896 24 12 24.896 12 26C12 27.104 12.896 28 14 28H38C39.104 28 40 27.104 40 26C40 24.896 39.104 24 38 24ZM38 32H14C12.896 32 12 32.896 12 34C12 35.104 12.896 36 14 36H38C39.104 36 40 35.104 40 34C40 32.896 39.104 32 38 32Z" fill="#E7BA74"/>
<defs>
<filter id="filter0_b_131_14062" x="-4" y="-4" width="60" height="60" filterUnits="userSpaceOnUse" color-interpolation-filters="sRGB">
<feFlood flood-opacity="0" result="BackgroundImageFix"/>
<feGaussianBlur in="BackgroundImageFix" stdDeviation="2"/>
<feComposite in2="SourceAlpha" operator="in" result="effect1_backgroundBlur_131_14062"/>
<feBlend mode="normal" in="SourceGraphic" in2="effect1_backgroundBlur_131_14062" result="shape"/>
</filter>
</defs>
</svg>
