<svg width="45" height="41" viewBox="0 0 45 41" fill="none" xmlns="http://www.w3.org/2000/svg">
<path d="M38.9405 8.23975C37.5247 8.7736 36.2248 9.50895 35.1101 10.5392C33.3325 12.1795 32.4956 14.2953 32.0747 16.6142C32.0364 16.8227 32.1147 17.0593 31.8325 17.2786C31.6807 16.9673 31.5065 16.6742 31.394 16.3602C30.5078 13.8891 28.6787 12.4385 26.2834 11.5929C25.835 11.4347 25.3766 11.3034 24.9235 11.1604C24.8266 11.0317 24.7334 10.9024 24.636 10.7701C25.5623 10.2473 26.4152 9.62804 27.152 8.85069C28.5291 7.39117 29.177 5.66745 29.0679 3.66593C29.034 3.0357 29.1138 2.39419 28.7598 1.61737C29.3373 2.03633 29.3683 2.51533 29.5562 2.89294C30.4386 4.67467 31.6175 6.16973 33.4506 7.04538C34.7904 7.68705 36.2077 7.98376 37.6919 7.98063C38.0928 7.9804 38.4925 7.99481 38.894 7.9981C38.9071 8.07904 38.9197 8.15647 38.9364 8.23684L38.9405 8.23975Z" fill="#E3C35E"/>
<path d="M4.83684 34.073C6.63518 33.1374 7.93334 31.7918 8.42347 29.7651C8.6849 28.6858 8.56121 27.615 8.3227 26.3715C8.53375 26.6695 8.67335 26.7948 8.73194 26.9551C10.0028 30.3244 12.5488 31.7631 16.0268 31.8039C16.123 31.9291 16.2152 32.0514 16.3079 32.1772C14.5736 32.9074 13.144 33.9998 12.184 35.6479C11.4925 36.8369 11.1441 38.1362 10.987 39.6789C10.7971 39.3558 10.656 39.1765 10.5835 38.9752C9.73817 36.5336 7.94148 35.1933 5.52131 34.5721C5.37842 34.5376 5.24085 34.4913 5.09739 34.4532C5.00819 34.3269 4.92308 34.2035 4.83388 34.0771L4.83684 34.073Z" fill="#E3C35E"/>
<path d="M16.3108 32.1731C16.2181 32.0473 16.1224 31.9256 16.0297 31.7998C16.3148 31.7534 16.6033 31.7065 16.8889 31.6636C16.9101 31.7938 16.9313 31.924 16.9525 32.0542C16.7384 32.0927 16.5243 32.1311 16.3108 32.1731Z" fill="#EBD58D"/>
<path d="M16.9525 32.0542C16.9313 31.924 16.9101 31.7938 16.889 31.6636C16.9904 31.6435 17.0967 31.6081 17.1975 31.6062C17.3376 31.6014 17.501 31.629 17.481 31.8165C17.4713 31.8903 17.3503 31.9678 17.2663 32.0068C17.1718 32.0474 17.0587 32.0406 16.9566 32.0572L16.9525 32.0542Z" fill="#F2E5B8"/>
<path d="M38.9405 8.23974C38.9273 8.15881 38.9147 8.08141 38.8981 8.00105C39.1796 7.95523 39.4611 7.90941 39.9714 7.82636C39.5415 8.20338 39.2274 8.18222 38.9405 8.23974Z" fill="#E9D183"/>
<path d="M24.6401 10.7731C24.7369 10.9018 24.8302 11.0311 24.9276 11.1634C24.7059 11.1994 24.4508 11.2301 24.3573 10.9889C24.2952 10.8292 24.4987 10.7925 24.6401 10.7731Z" fill="#EBD183"/>
<path d="M4.83684 34.073C4.92603 34.1994 5.01114 34.3228 5.10034 34.4492C4.88567 34.4841 4.63819 34.5171 4.55473 34.2706C4.5026 34.1057 4.69673 34.0778 4.83684 34.073Z" fill="#F0DCA1"/>
</svg>
