<svg width="31" height="31" viewBox="0 0 31 31" fill="none" xmlns="http://www.w3.org/2000/svg">
<path d="M15.5 0.5C7.28261 0.5 0.5 7.28261 0.5 15.5C0.5 18.6304 1.41304 21.5 3.1087 23.9783L1.41304 29.0652C1.28261 29.3261 1.41304 29.587 1.54348 29.7174C1.80435 29.8478 2.06522 29.9783 2.32609 29.8478L7.54348 28.1522C9.8913 29.7174 12.7609 30.5 15.5 30.5C23.7174 30.5 30.5 23.7174 30.5 15.5C30.5 7.28261 23.7174 0.5 15.5 0.5ZM24.5 21.6304C24.1087 22.8043 22.5435 23.8478 21.2391 24.1087C20.9783 24.1087 20.7174 24.2391 20.3261 24.2391C19.2826 24.2391 17.9783 23.8478 15.8913 23.0652C13.2826 22.0217 10.6739 19.6739 8.58696 16.6739L8.45652 16.5435C7.67391 15.5 6.5 13.6739 6.5 11.7174C6.5 9.5 7.67391 8.32609 8.06522 7.80435C8.58696 7.28261 9.23913 7.02174 10.0217 7.02174C10.1522 7.02174 10.2826 7.02174 10.413 7.02174H10.5435C11.1957 7.02174 11.587 7.28261 11.9783 8.06522L12.2391 8.58696C12.6304 9.5 13.1522 10.9348 13.2826 11.1957C13.5435 11.7174 13.5435 12.1087 13.2826 12.5C13.1522 12.7609 13.0217 13.0217 12.7609 13.2826C12.6304 13.413 12.5 13.5435 12.5 13.6739C12.3696 13.8043 12.2391 13.9348 12.1087 14.0652C12.1087 14.1957 12.1087 14.1957 12.1087 14.1957C12.5 14.8478 13.2826 16.0217 14.3261 16.9348C15.7609 18.2391 16.8043 18.6304 17.3261 18.8913H17.4565C17.587 18.8913 17.7174 19.0217 17.7174 18.8913C17.9783 18.6304 18.2391 18.1087 18.6304 17.7174L18.7609 17.587C19.1522 17.0652 19.6739 16.9348 19.9348 16.9348C20.0652 16.9348 20.3261 16.9348 20.4565 17.0652C20.587 17.0652 20.8478 17.1957 23.3261 18.5L23.587 18.6304C23.9783 18.7609 24.2391 18.8913 24.3696 19.2826C24.8913 19.5435 24.7609 20.7174 24.5 21.6304Z" fill="#00ADA9"/>
</svg>
