<svg width="30" height="31" viewBox="0 0 30 31" fill="none" xmlns="http://www.w3.org/2000/svg">
<path d="M15 0.5C6.78261 0.5 0 7.28261 0 15.5C0 18.6304 0.913044 21.5 2.6087 23.9783L0.913044 29.0652C0.782609 29.3261 0.913043 29.587 1.04348 29.7174C1.30435 29.8478 1.56522 29.9783 1.82609 29.8478L7.04348 28.1522C9.3913 29.7174 12.2609 30.5 15 30.5C23.2174 30.5 30 23.7174 30 15.5C30 7.28261 23.2174 0.5 15 0.5ZM24 21.6304C23.6087 22.8043 22.0435 23.8478 20.7391 24.1087C20.4783 24.1087 20.2174 24.2391 19.8261 24.2391C18.7826 24.2391 17.4783 23.8478 15.3913 23.0652C12.7826 22.0217 10.1739 19.6739 8.08696 16.6739L7.95652 16.5435C7.17391 15.5 6 13.6739 6 11.7174C6 9.5 7.17391 8.32609 7.56522 7.80435C8.08696 7.28261 8.73913 7.02174 9.52174 7.02174C9.65217 7.02174 9.78261 7.02174 9.91304 7.02174H10.0435C10.6957 7.02174 11.087 7.28261 11.4783 8.06522L11.7391 8.58696C12.1304 9.5 12.6522 10.9348 12.7826 11.1957C13.0435 11.7174 13.0435 12.1087 12.7826 12.5C12.6522 12.7609 12.5217 13.0217 12.2609 13.2826C12.1304 13.413 12 13.5435 12 13.6739C11.8696 13.8043 11.7391 13.9348 11.6087 14.0652C11.6087 14.1957 11.6087 14.1957 11.6087 14.1957C12 14.8478 12.7826 16.0217 13.8261 16.9348C15.2609 18.2391 16.3043 18.6304 16.8261 18.8913H16.9565C17.087 18.8913 17.2174 19.0217 17.2174 18.8913C17.4783 18.6304 17.7391 18.1087 18.1304 17.7174L18.2609 17.587C18.6522 17.0652 19.1739 16.9348 19.4348 16.9348C19.5652 16.9348 19.8261 16.9348 19.9565 17.0652C20.087 17.0652 20.3478 17.1957 22.8261 18.5L23.087 18.6304C23.4783 18.7609 23.7391 18.8913 23.8696 19.2826C24.3913 19.5435 24.2609 20.7174 24 21.6304Z" fill="white"/>
</svg>
